<?xml version="1.0" encoding="UTF-8" standalone="no"?>
<!DOCTYPE svg PUBLIC "-//W3C//DTD SVG 1.1//EN"
 "http://www.w3.org/Graphics/SVG/1.1/DTD/svg11.dtd">
<!-- Generated by graphviz version 2.49.3 (20211023.0002)
 -->
<!-- Pages: 1 -->
<svg width="2202pt" height="620pt"
 viewBox="0.00 0.00 2201.54 620.00" xmlns="http://www.w3.org/2000/svg" xmlns:xlink="http://www.w3.org/1999/xlink">
<g id="graph0" class="graph" transform="scale(1 1) rotate(0) translate(4 616)">
<polygon fill="white" stroke="transparent" points="-4,4 -4,-616 2197.54,-616 2197.54,4 -4,4"/>
<!-- VonNeumann_N -->
<g id="node1" class="node">
<title>VonNeumann_N</title>
<ellipse fill="none" stroke="black" cx="668.04" cy="-594" rx="107.48" ry="18"/>
<text text-anchor="middle" x="668.04" y="-590.3" font-family="Times New Roman,serif" font-size="14.00">Von Neumann model of ℕ</text>
</g>
<!-- PeanoAxioms -->
<g id="node3" class="node">
<title>PeanoAxioms</title>
<ellipse fill="none" stroke="black" cx="773.04" cy="-522" rx="83.69" ry="18"/>
<text text-anchor="middle" x="773.04" y="-518.3" font-family="Times New Roman,serif" font-size="14.00">Peano axioms for ℕ</text>
</g>
<!-- VonNeumann_N&#45;&gt;PeanoAxioms -->
<g id="edge1" class="edge">
<title>VonNeumann_N&#45;&gt;PeanoAxioms</title>
<path fill="none" stroke="black" d="M692.93,-576.41C707.02,-567.02 724.82,-555.15 740.07,-544.98"/>
<polygon fill="black" stroke="black" points="742.32,-547.69 748.7,-539.23 738.44,-541.86 742.32,-547.69"/>
</g>
<!-- Zermelo_N -->
<g id="node2" class="node">
<title>Zermelo_N</title>
<ellipse fill="none" stroke="black" cx="878.04" cy="-594" rx="85.29" ry="18"/>
<text text-anchor="middle" x="878.04" y="-590.3" font-family="Times New Roman,serif" font-size="14.00">Zermelo model of ℕ</text>
</g>
<!-- Zermelo_N&#45;&gt;PeanoAxioms -->
<g id="edge2" class="edge">
<title>Zermelo_N&#45;&gt;PeanoAxioms</title>
<path fill="none" stroke="black" d="M853.42,-576.59C839.34,-567.2 821.48,-555.29 806.17,-545.09"/>
<polygon fill="black" stroke="black" points="807.77,-541.94 797.51,-539.31 803.88,-547.77 807.77,-541.94"/>
</g>
<!-- Addition -->
<g id="node4" class="node">
<title>Addition</title>
<ellipse fill="none" stroke="black" cx="693.04" cy="-450" rx="63.89" ry="18"/>
<text text-anchor="middle" x="693.04" y="-446.3" font-family="Times New Roman,serif" font-size="14.00">Definition of +</text>
</g>
<!-- PeanoAxioms&#45;&gt;Addition -->
<g id="edge3" class="edge">
<title>PeanoAxioms&#45;&gt;Addition</title>
<path fill="none" stroke="black" d="M754.08,-504.41C743.65,-495.28 730.54,-483.81 719.15,-473.84"/>
<polygon fill="black" stroke="black" points="721.42,-471.18 711.59,-467.23 716.81,-476.45 721.42,-471.18"/>
</g>
<!-- Digits -->
<g id="node7" class="node">
<title>Digits</title>
<ellipse fill="none" stroke="black" cx="853.04" cy="-450" rx="77.99" ry="18"/>
<text text-anchor="middle" x="853.04" y="-446.3" font-family="Times New Roman,serif" font-size="14.00">Definition of digits</text>
</g>
<!-- PeanoAxioms&#45;&gt;Digits -->
<g id="edge4" class="edge">
<title>PeanoAxioms&#45;&gt;Digits</title>
<path fill="none" stroke="black" d="M792,-504.41C802.36,-495.34 815.36,-483.97 826.69,-474.06"/>
<polygon fill="black" stroke="black" points="829,-476.69 834.22,-467.47 824.39,-471.42 829,-476.69"/>
</g>
<!-- Multiplication -->
<g id="node5" class="node">
<title>Multiplication</title>
<ellipse fill="none" stroke="black" cx="435.04" cy="-234" rx="61.99" ry="18"/>
<text text-anchor="middle" x="435.04" y="-230.3" font-family="Times New Roman,serif" font-size="14.00">Definition of ·</text>
</g>
<!-- Addition&#45;&gt;Multiplication -->
<g id="edge5" class="edge">
<title>Addition&#45;&gt;Multiplication</title>
<path fill="none" stroke="black" d="M650.89,-436.34C625.87,-427.54 594.38,-414.12 570.04,-396 518.2,-357.41 473.46,-295.12 450.82,-260.42"/>
<polygon fill="black" stroke="black" points="453.64,-258.34 445.29,-251.81 447.75,-262.12 453.64,-258.34"/>
</g>
<!-- LinearTotalOrdering -->
<g id="node6" class="node">
<title>LinearTotalOrdering</title>
<ellipse fill="none" stroke="black" cx="1264.04" cy="-378" rx="63.89" ry="18"/>
<text text-anchor="middle" x="1264.04" y="-374.3" font-family="Times New Roman,serif" font-size="14.00">Definition of ≤</text>
</g>
<!-- Addition&#45;&gt;LinearTotalOrdering -->
<g id="edge6" class="edge">
<title>Addition&#45;&gt;LinearTotalOrdering</title>
<path fill="none" stroke="black" d="M738.82,-437.43C747.8,-435.42 757.19,-433.5 766.04,-432 916.95,-406.5 1095.77,-391.01 1192.78,-383.82"/>
<polygon fill="black" stroke="black" points="1193.05,-387.31 1202.77,-383.09 1192.54,-380.33 1193.05,-387.31"/>
</g>
<!-- AdditionPeanoS -->
<g id="node8" class="node">
<title>AdditionPeanoS</title>
<ellipse fill="none" stroke="black" cx="624.04" cy="-378" rx="44.69" ry="18"/>
<text text-anchor="middle" x="624.04" y="-374.3" font-family="Times New Roman,serif" font-size="14.00">S(a)=a+1</text>
</g>
<!-- Addition&#45;&gt;AdditionPeanoS -->
<g id="edge7" class="edge">
<title>Addition&#45;&gt;AdditionPeanoS</title>
<path fill="none" stroke="black" d="M676.69,-432.41C667.8,-423.39 656.66,-412.09 646.92,-402.21"/>
<polygon fill="black" stroke="black" points="649.31,-399.65 639.8,-394.99 644.33,-404.57 649.31,-399.65"/>
</g>
<!-- AdditionIdentity -->
<g id="node9" class="node">
<title>AdditionIdentity</title>
<ellipse fill="none" stroke="black" cx="370.04" cy="-378" rx="73.39" ry="18"/>
<text text-anchor="middle" x="370.04" y="-374.3" font-family="Times New Roman,serif" font-size="14.00">0 is identity for +</text>
</g>
<!-- Addition&#45;&gt;AdditionIdentity -->
<g id="edge9" class="edge">
<title>Addition&#45;&gt;AdditionIdentity</title>
<path fill="none" stroke="black" d="M643.99,-438.37C587.56,-426.14 494.79,-406.04 433.07,-392.66"/>
<polygon fill="black" stroke="black" points="433.57,-389.19 423.06,-390.49 432.09,-396.03 433.57,-389.19"/>
</g>
<!-- AdditionAssociativity -->
<g id="node10" class="node">
<title>AdditionAssociativity</title>
<ellipse fill="none" stroke="black" cx="762.04" cy="-378" rx="75.29" ry="18"/>
<text text-anchor="middle" x="762.04" y="-374.3" font-family="Times New Roman,serif" font-size="14.00">Associativity of +</text>
</g>
<!-- Addition&#45;&gt;AdditionAssociativity -->
<g id="edge10" class="edge">
<title>Addition&#45;&gt;AdditionAssociativity</title>
<path fill="none" stroke="black" d="M709.39,-432.41C717.95,-423.73 728.58,-412.95 738.05,-403.34"/>
<polygon fill="black" stroke="black" points="740.8,-405.54 745.33,-395.96 735.82,-400.62 740.8,-405.54"/>
</g>
<!-- AdditionCommutativityZero -->
<g id="node13" class="node">
<title>AdditionCommutativityZero</title>
<ellipse fill="none" stroke="black" cx="953.04" cy="-306" rx="102.08" ry="18"/>
<text text-anchor="middle" x="953.04" y="-302.3" font-family="Times New Roman,serif" font-size="14.00">Commutativity of + for 0</text>
</g>
<!-- Addition&#45;&gt;AdditionCommutativityZero -->
<g id="edge11" class="edge">
<title>Addition&#45;&gt;AdditionCommutativityZero</title>
<path fill="none" stroke="black" d="M739.4,-437.65C770.74,-428.87 812.38,-414.99 846.04,-396 877.58,-378.21 908.86,-350.75 929.38,-331.04"/>
<polygon fill="black" stroke="black" points="931.98,-333.39 936.69,-323.9 927.09,-328.38 931.98,-333.39"/>
</g>
<!-- MultiplicationIdentityLeft -->
<g id="node16" class="node">
<title>MultiplicationIdentityLeft</title>
<ellipse fill="none" stroke="black" cx="488.04" cy="-162" rx="84.49" ry="18"/>
<text text-anchor="middle" x="488.04" y="-158.3" font-family="Times New Roman,serif" font-size="14.00">1 is left identity for ·</text>
</g>
<!-- Multiplication&#45;&gt;MultiplicationIdentityLeft -->
<g id="edge22" class="edge">
<title>Multiplication&#45;&gt;MultiplicationIdentityLeft</title>
<path fill="none" stroke="black" d="M447.87,-216.05C454.16,-207.75 461.86,-197.58 468.83,-188.38"/>
<polygon fill="black" stroke="black" points="471.72,-190.36 474.96,-180.28 466.14,-186.14 471.72,-190.36"/>
</g>
<!-- MultiplicationIdentityRight -->
<g id="node17" class="node">
<title>MultiplicationIdentityRight</title>
<ellipse fill="none" stroke="black" cx="89.04" cy="-162" rx="89.08" ry="18"/>
<text text-anchor="middle" x="89.04" y="-158.3" font-family="Times New Roman,serif" font-size="14.00">1 is right identity for ·</text>
</g>
<!-- Multiplication&#45;&gt;MultiplicationIdentityRight -->
<g id="edge20" class="edge">
<title>Multiplication&#45;&gt;MultiplicationIdentityRight</title>
<path fill="none" stroke="black" d="M385.84,-223.05C326.74,-211.09 227.18,-190.95 159.83,-177.32"/>
<polygon fill="black" stroke="black" points="160.22,-173.83 149.72,-175.28 158.83,-180.69 160.22,-173.83"/>
</g>
<!-- MultiplicationAnnihilatorLeft -->
<g id="node19" class="node">
<title>MultiplicationAnnihilatorLeft</title>
<ellipse fill="none" stroke="black" cx="291.04" cy="-162" rx="94.78" ry="18"/>
<text text-anchor="middle" x="291.04" y="-158.3" font-family="Times New Roman,serif" font-size="14.00">0 is left annihilator for ·</text>
</g>
<!-- Multiplication&#45;&gt;MultiplicationAnnihilatorLeft -->
<g id="edge25" class="edge">
<title>Multiplication&#45;&gt;MultiplicationAnnihilatorLeft</title>
<path fill="none" stroke="black" d="M404.5,-218.15C383.68,-208.03 355.83,-194.5 332.94,-183.37"/>
<polygon fill="black" stroke="black" points="334.31,-180.14 323.79,-178.92 331.25,-186.44 334.31,-180.14"/>
</g>
<!-- MultiplicationRightDistributiveOverAddition -->
<g id="node20" class="node">
<title>MultiplicationRightDistributiveOverAddition</title>
<ellipse fill="none" stroke="black" cx="748.04" cy="-162" rx="119.68" ry="18"/>
<text text-anchor="middle" x="748.04" y="-158.3" font-family="Times New Roman,serif" font-size="14.00">Right distributivity of · over +</text>
</g>
<!-- Multiplication&#45;&gt;MultiplicationRightDistributiveOverAddition -->
<g id="edge27" class="edge">
<title>Multiplication&#45;&gt;MultiplicationRightDistributiveOverAddition</title>
<path fill="none" stroke="black" d="M482.58,-222.37C533.5,-210.98 614.99,-192.76 674.26,-179.5"/>
<polygon fill="black" stroke="black" points="675.31,-182.85 684.31,-177.25 673.79,-176.02 675.31,-182.85"/>
</g>
<!-- OtherOrdering -->
<g id="node24" class="node">
<title>OtherOrdering</title>
<ellipse fill="none" stroke="black" cx="1466.04" cy="-306" rx="31.4" ry="18"/>
<text text-anchor="middle" x="1466.04" y="-302.3" font-family="Times New Roman,serif" font-size="14.00">&lt; &gt; ≥</text>
</g>
<!-- LinearTotalOrdering&#45;&gt;OtherOrdering -->
<g id="edge37" class="edge">
<title>LinearTotalOrdering&#45;&gt;OtherOrdering</title>
<path fill="none" stroke="black" d="M1302.99,-363.5C1339.88,-350.72 1394.79,-331.69 1430.51,-319.31"/>
<polygon fill="black" stroke="black" points="1431.74,-322.59 1440.05,-316.01 1429.45,-315.98 1431.74,-322.59"/>
</g>
<!-- Digits&#45;&gt;AdditionPeanoS -->
<g id="edge8" class="edge">
<title>Digits&#45;&gt;AdditionPeanoS</title>
<path fill="none" stroke="black" d="M807.31,-435.3C771.98,-424.68 721.87,-409.54 678.04,-396 674.7,-394.97 671.25,-393.89 667.77,-392.81"/>
<polygon fill="black" stroke="black" points="668.6,-389.4 658.02,-389.76 666.51,-396.08 668.6,-389.4"/>
</g>
<!-- ArithmeticTables -->
<g id="node36" class="node">
<title>ArithmeticTables</title>
<ellipse fill="none" stroke="black" cx="2122.04" cy="-90" rx="71.49" ry="18"/>
<text text-anchor="middle" x="2122.04" y="-86.3" font-family="Times New Roman,serif" font-size="14.00">Arithmetic tables</text>
</g>
<!-- Digits&#45;&gt;ArithmeticTables -->
<g id="edge55" class="edge">
<title>Digits&#45;&gt;ArithmeticTables</title>
<path fill="none" stroke="black" d="M931.11,-448.84C1214.46,-447.25 2172.04,-432.59 2172.04,-307 2172.04,-307 2172.04,-307 2172.04,-233 2172.04,-192.55 2167.66,-181.71 2153.04,-144 2149.42,-134.66 2144.28,-125.03 2139.22,-116.59"/>
<polygon fill="black" stroke="black" points="2142.1,-114.59 2133.84,-107.96 2136.16,-118.3 2142.1,-114.59"/>
</g>
<!-- AdditionCancellation -->
<g id="node12" class="node">
<title>AdditionCancellation</title>
<ellipse fill="none" stroke="black" cx="370.04" cy="-306" rx="89.08" ry="18"/>
<text text-anchor="middle" x="370.04" y="-302.3" font-family="Times New Roman,serif" font-size="14.00">Cancellation rule of +</text>
</g>
<!-- AdditionPeanoS&#45;&gt;AdditionCancellation -->
<g id="edge16" class="edge">
<title>AdditionPeanoS&#45;&gt;AdditionCancellation</title>
<path fill="none" stroke="black" d="M588.19,-367.12C547.25,-355.84 479.6,-337.19 430.48,-323.66"/>
<polygon fill="black" stroke="black" points="431.17,-320.22 420.6,-320.93 429.31,-326.97 431.17,-320.22"/>
</g>
<!-- AdditionCommutativityOne -->
<g id="node14" class="node">
<title>AdditionCommutativityOne</title>
<ellipse fill="none" stroke="black" cx="693.04" cy="-306" rx="102.08" ry="18"/>
<text text-anchor="middle" x="693.04" y="-302.3" font-family="Times New Roman,serif" font-size="14.00">Commutativity of + for 1</text>
</g>
<!-- AdditionPeanoS&#45;&gt;AdditionCommutativityOne -->
<g id="edge12" class="edge">
<title>AdditionPeanoS&#45;&gt;AdditionCommutativityOne</title>
<path fill="none" stroke="black" d="M639.7,-361.12C648.44,-352.24 659.52,-341.01 669.31,-331.08"/>
<polygon fill="black" stroke="black" points="671.96,-333.38 676.48,-323.8 666.97,-328.46 671.96,-333.38"/>
</g>
<!-- AdditionPeanoS&#45;&gt;MultiplicationIdentityLeft -->
<g id="edge23" class="edge">
<title>AdditionPeanoS&#45;&gt;MultiplicationIdentityLeft</title>
<path fill="none" stroke="black" d="M597.37,-363.45C581.46,-354.21 561.93,-340.64 549.04,-324 540.51,-312.98 512.02,-232.53 497.19,-189.69"/>
<polygon fill="black" stroke="black" points="500.48,-188.48 493.91,-180.17 493.86,-190.76 500.48,-188.48"/>
</g>
<!-- MultiplicationLeftDistributiveOverAddition -->
<g id="node21" class="node">
<title>MultiplicationLeftDistributiveOverAddition</title>
<ellipse fill="none" stroke="black" cx="572.04" cy="-90" rx="114.28" ry="18"/>
<text text-anchor="middle" x="572.04" y="-86.3" font-family="Times New Roman,serif" font-size="14.00">Left distributivity of · over +</text>
</g>
<!-- AdditionPeanoS&#45;&gt;MultiplicationLeftDistributiveOverAddition -->
<g id="edge30" class="edge">
<title>AdditionPeanoS&#45;&gt;MultiplicationLeftDistributiveOverAddition</title>
<path fill="none" stroke="black" d="M606.78,-361.13C597.52,-351.43 587.02,-338.18 582.04,-324 555.53,-248.52 587.98,-223.7 581.04,-144 580.3,-135.5 578.94,-126.31 577.5,-118.01"/>
<polygon fill="black" stroke="black" points="580.93,-117.29 575.67,-108.09 574.04,-118.56 580.93,-117.29"/>
</g>
<!-- WellOrdering -->
<g id="node33" class="node">
<title>WellOrdering</title>
<ellipse fill="silver" stroke="black" cx="1824.04" cy="-162" rx="128.08" ry="18"/>
<text text-anchor="middle" x="1824.04" y="-158.3" font-family="Times New Roman,serif" font-size="14.00">well ordering of natural numbers</text>
</g>
<!-- AdditionPeanoS&#45;&gt;WellOrdering -->
<g id="edge47" class="edge">
<title>AdditionPeanoS&#45;&gt;WellOrdering</title>
<path fill="none" stroke="black" d="M656.25,-365.35C663.35,-363.21 670.88,-361.26 678.04,-360 819.37,-335.13 1871.76,-361.05 1965.04,-252 1975.44,-239.84 1974.15,-229.15 1965.04,-216 1953.21,-198.91 1935.13,-187.32 1915.82,-179.47"/>
<polygon fill="black" stroke="black" points="1916.86,-176.12 1906.27,-175.9 1914.41,-182.68 1916.86,-176.12"/>
</g>
<!-- AdditionIdentity&#45;&gt;AdditionCancellation -->
<g id="edge17" class="edge">
<title>AdditionIdentity&#45;&gt;AdditionCancellation</title>
<path fill="none" stroke="black" d="M370.04,-359.7C370.04,-351.98 370.04,-342.71 370.04,-334.11"/>
<polygon fill="black" stroke="black" points="373.54,-334.1 370.04,-324.1 366.54,-334.1 373.54,-334.1"/>
</g>
<!-- AdditionIdentity&#45;&gt;MultiplicationIdentityRight -->
<g id="edge21" class="edge">
<title>AdditionIdentity&#45;&gt;MultiplicationIdentityRight</title>
<path fill="none" stroke="black" d="M337.63,-361.79C318.01,-352.03 292.83,-338.49 272.04,-324 210.65,-281.22 146.76,-220.72 113.11,-187.4"/>
<polygon fill="black" stroke="black" points="115.17,-184.51 105.62,-179.93 110.23,-189.47 115.17,-184.51"/>
</g>
<!-- AdditionAssociativity&#45;&gt;AdditionCommutativityOne -->
<g id="edge13" class="edge">
<title>AdditionAssociativity&#45;&gt;AdditionCommutativityOne</title>
<path fill="none" stroke="black" d="M745.69,-360.41C737.14,-351.73 726.5,-340.95 717.04,-331.34"/>
<polygon fill="black" stroke="black" points="719.27,-328.62 709.76,-323.96 714.28,-333.54 719.27,-328.62"/>
</g>
<!-- AdditionAssociativity&#45;&gt;MultiplicationRightDistributiveOverAddition -->
<g id="edge28" class="edge">
<title>AdditionAssociativity&#45;&gt;MultiplicationRightDistributiveOverAddition</title>
<path fill="none" stroke="black" d="M780.21,-360.22C789.25,-350.61 799.26,-337.75 804.04,-324 809.3,-308.89 806.2,-303.85 804.04,-288 799.56,-255.09 798,-246.14 784.04,-216 779.67,-206.56 773.69,-196.95 767.86,-188.54"/>
<polygon fill="black" stroke="black" points="770.59,-186.35 761.91,-180.28 764.91,-190.44 770.59,-186.35"/>
</g>
<!-- AdditionCommutativity -->
<g id="node11" class="node">
<title>AdditionCommutativity</title>
<ellipse fill="none" stroke="black" cx="693.04" cy="-234" rx="81.79" ry="18"/>
<text text-anchor="middle" x="693.04" y="-230.3" font-family="Times New Roman,serif" font-size="14.00">Commutativity of +</text>
</g>
<!-- AdditionCommutativity&#45;&gt;MultiplicationIdentityLeft -->
<g id="edge24" class="edge">
<title>AdditionCommutativity&#45;&gt;MultiplicationIdentityLeft</title>
<path fill="none" stroke="black" d="M650.57,-218.5C618.65,-207.6 574.75,-192.61 540.62,-180.95"/>
<polygon fill="black" stroke="black" points="541.41,-177.52 530.82,-177.61 539.15,-184.15 541.41,-177.52"/>
</g>
<!-- AdditionCommutativity&#45;&gt;MultiplicationRightDistributiveOverAddition -->
<g id="edge29" class="edge">
<title>AdditionCommutativity&#45;&gt;MultiplicationRightDistributiveOverAddition</title>
<path fill="none" stroke="black" d="M706.36,-216.05C712.88,-207.75 720.87,-197.58 728.1,-188.38"/>
<polygon fill="black" stroke="black" points="731.04,-190.3 734.47,-180.28 725.54,-185.98 731.04,-190.3"/>
</g>
<!-- Trichotomy -->
<g id="node32" class="node">
<title>Trichotomy</title>
<ellipse fill="none" stroke="black" cx="1591.04" cy="-162" rx="87.18" ry="18"/>
<text text-anchor="middle" x="1591.04" y="-158.3" font-family="Times New Roman,serif" font-size="14.00">Trichotomy of &lt; = &gt;</text>
</g>
<!-- AdditionCommutativity&#45;&gt;Trichotomy -->
<g id="edge45" class="edge">
<title>AdditionCommutativity&#45;&gt;Trichotomy</title>
<path fill="none" stroke="black" d="M759.22,-223.28C779.36,-220.59 801.57,-217.89 822.04,-216 1120.31,-188.41 1197.46,-214.18 1495.04,-180 1503.26,-179.06 1511.84,-177.85 1520.34,-176.52"/>
<polygon fill="black" stroke="black" points="1520.95,-179.97 1530.26,-174.91 1519.83,-173.06 1520.95,-179.97"/>
</g>
<!-- AdditionCommutativityZero&#45;&gt;AdditionCommutativity -->
<g id="edge14" class="edge">
<title>AdditionCommutativityZero&#45;&gt;AdditionCommutativity</title>
<path fill="none" stroke="black" d="M899.49,-290.58C856.78,-279.08 797.01,-262.99 752.76,-251.08"/>
<polygon fill="black" stroke="black" points="753.57,-247.67 743,-248.45 751.75,-254.43 753.57,-247.67"/>
</g>
<!-- AdditionCommutativityOne&#45;&gt;AdditionCommutativity -->
<g id="edge15" class="edge">
<title>AdditionCommutativityOne&#45;&gt;AdditionCommutativity</title>
<path fill="none" stroke="black" d="M693.04,-287.7C693.04,-279.98 693.04,-270.71 693.04,-262.11"/>
<polygon fill="black" stroke="black" points="696.54,-262.1 693.04,-252.1 689.54,-262.1 696.54,-262.1"/>
</g>
<!-- MultiplicationIdentity -->
<g id="node15" class="node">
<title>MultiplicationIdentity</title>
<ellipse fill="none" stroke="black" cx="188.04" cy="-90" rx="70.69" ry="18"/>
<text text-anchor="middle" x="188.04" y="-86.3" font-family="Times New Roman,serif" font-size="14.00">1 is identity for ·</text>
</g>
<!-- MultiplicationCommutativity -->
<g id="node23" class="node">
<title>MultiplicationCommutativity</title>
<ellipse fill="none" stroke="black" cx="494.04" cy="-18" rx="79.09" ry="18"/>
<text text-anchor="middle" x="494.04" y="-14.3" font-family="Times New Roman,serif" font-size="14.00">Commutativity of ·</text>
</g>
<!-- MultiplicationIdentity&#45;&gt;MultiplicationCommutativity -->
<g id="edge35" class="edge">
<title>MultiplicationIdentity&#45;&gt;MultiplicationCommutativity</title>
<path fill="none" stroke="black" d="M238.92,-77.36C291.42,-65.35 373.46,-46.59 430.26,-33.59"/>
<polygon fill="black" stroke="black" points="431.25,-36.96 440.21,-31.31 429.68,-30.13 431.25,-36.96"/>
</g>
<!-- MultiplicationIdentityLeft&#45;&gt;MultiplicationIdentity -->
<g id="edge18" class="edge">
<title>MultiplicationIdentityLeft&#45;&gt;MultiplicationIdentity</title>
<path fill="none" stroke="black" d="M433.37,-148.24C381.02,-136.03 302.23,-117.64 248.15,-105.02"/>
<polygon fill="black" stroke="black" points="248.88,-101.6 238.35,-102.74 247.29,-108.42 248.88,-101.6"/>
</g>
<!-- MultiplicationIdentityLeft&#45;&gt;MultiplicationLeftDistributiveOverAddition -->
<g id="edge31" class="edge">
<title>MultiplicationIdentityLeft&#45;&gt;MultiplicationLeftDistributiveOverAddition</title>
<path fill="none" stroke="black" d="M507.95,-144.41C518.67,-135.48 532.08,-124.3 543.85,-114.49"/>
<polygon fill="black" stroke="black" points="546.25,-117.05 551.69,-107.96 541.77,-111.67 546.25,-117.05"/>
</g>
<!-- MultiplicationIdentityRight&#45;&gt;MultiplicationIdentity -->
<g id="edge19" class="edge">
<title>MultiplicationIdentityRight&#45;&gt;MultiplicationIdentity</title>
<path fill="none" stroke="black" d="M112.25,-144.59C125.63,-135.13 142.62,-123.12 157.11,-112.87"/>
<polygon fill="black" stroke="black" points="159.17,-115.7 165.32,-107.07 155.13,-109.98 159.17,-115.7"/>
</g>
<!-- MultiplicationAssociativity -->
<g id="node22" class="node">
<title>MultiplicationAssociativity</title>
<ellipse fill="none" stroke="black" cx="245.04" cy="-18" rx="73.39" ry="18"/>
<text text-anchor="middle" x="245.04" y="-14.3" font-family="Times New Roman,serif" font-size="14.00">Associativity of ·</text>
</g>
<!-- MultiplicationIdentityRight&#45;&gt;MultiplicationAssociativity -->
<g id="edge33" class="edge">
<title>MultiplicationIdentityRight&#45;&gt;MultiplicationAssociativity</title>
<path fill="none" stroke="black" d="M88.13,-143.84C88.02,-124.22 90.82,-92.2 108.04,-72 125.28,-51.78 151.17,-39.24 175.82,-31.48"/>
<polygon fill="black" stroke="black" points="176.94,-34.8 185.55,-28.64 174.97,-28.08 176.94,-34.8"/>
</g>
<!-- MultiplicationAnnihilator -->
<g id="node18" class="node">
<title>MultiplicationAnnihilator</title>
<ellipse fill="none" stroke="black" cx="358.04" cy="-90" rx="81.49" ry="18"/>
<text text-anchor="middle" x="358.04" y="-86.3" font-family="Times New Roman,serif" font-size="14.00">0 is annihilator for ·</text>
</g>
<!-- MultiplicationAnnihilatorLeft&#45;&gt;MultiplicationAnnihilator -->
<g id="edge26" class="edge">
<title>MultiplicationAnnihilatorLeft&#45;&gt;MultiplicationAnnihilator</title>
<path fill="none" stroke="black" d="M307.26,-144.05C315.57,-135.37 325.84,-124.64 334.96,-115.11"/>
<polygon fill="black" stroke="black" points="337.59,-117.43 341.97,-107.79 332.53,-112.59 337.59,-117.43"/>
</g>
<!-- MultiplicationRightDistributiveOverAddition&#45;&gt;MultiplicationLeftDistributiveOverAddition -->
<g id="edge32" class="edge">
<title>MultiplicationRightDistributiveOverAddition&#45;&gt;MultiplicationLeftDistributiveOverAddition</title>
<path fill="none" stroke="black" d="M707.66,-144.94C682.06,-134.76 648.77,-121.52 621.57,-110.7"/>
<polygon fill="black" stroke="black" points="622.82,-107.43 612.23,-106.98 620.23,-113.93 622.82,-107.43"/>
</g>
<!-- DivisionAlgorithm -->
<g id="node34" class="node">
<title>DivisionAlgorithm</title>
<ellipse fill="silver" stroke="black" cx="1491.04" cy="-90" rx="131.08" ry="18"/>
<text text-anchor="middle" x="1491.04" y="-86.3" font-family="Times New Roman,serif" font-size="14.00">Division algorithm (cf. Numerals)</text>
</g>
<!-- MultiplicationRightDistributiveOverAddition&#45;&gt;DivisionAlgorithm -->
<g id="edge50" class="edge">
<title>MultiplicationRightDistributiveOverAddition&#45;&gt;DivisionAlgorithm</title>
<path fill="none" stroke="black" d="M846.32,-151.74C983.15,-138.85 1230.56,-115.54 1375.87,-101.85"/>
<polygon fill="black" stroke="black" points="1376.53,-105.3 1386.15,-100.88 1375.87,-98.34 1376.53,-105.3"/>
</g>
<!-- MultiplicationLeftDistributiveOverAddition&#45;&gt;MultiplicationAssociativity -->
<g id="edge34" class="edge">
<title>MultiplicationLeftDistributiveOverAddition&#45;&gt;MultiplicationAssociativity</title>
<path fill="none" stroke="black" d="M507.05,-75.09C449.33,-62.73 365.5,-44.79 308.31,-32.54"/>
<polygon fill="black" stroke="black" points="308.82,-29.07 298.3,-30.4 307.35,-35.92 308.82,-29.07"/>
</g>
<!-- MultiplicationLeftDistributiveOverAddition&#45;&gt;MultiplicationCommutativity -->
<g id="edge36" class="edge">
<title>MultiplicationLeftDistributiveOverAddition&#45;&gt;MultiplicationCommutativity</title>
<path fill="none" stroke="black" d="M553.16,-72.05C543.22,-63.13 530.88,-52.06 520.05,-42.34"/>
<polygon fill="black" stroke="black" points="522.26,-39.62 512.48,-35.55 517.59,-44.83 522.26,-39.62"/>
</g>
<!-- AncientSubtraction -->
<g id="node25" class="node">
<title>AncientSubtraction</title>
<ellipse fill="none" stroke="black" cx="1614.04" cy="-234" rx="59.59" ry="18"/>
<text text-anchor="middle" x="1614.04" y="-230.3" font-family="Times New Roman,serif" font-size="14.00">b&#45;a when a≤b</text>
</g>
<!-- OtherOrdering&#45;&gt;AncientSubtraction -->
<g id="edge38" class="edge">
<title>OtherOrdering&#45;&gt;AncientSubtraction</title>
<path fill="none" stroke="black" d="M1489.49,-293.91C1512.17,-283.18 1546.97,-266.72 1574.03,-253.92"/>
<polygon fill="black" stroke="black" points="1575.7,-257 1583.25,-249.56 1572.71,-250.68 1575.7,-257"/>
</g>
<!-- Ellipsis -->
<g id="node26" class="node">
<title>Ellipsis</title>
<ellipse fill="none" stroke="black" cx="2076.04" cy="-234" rx="64.19" ry="18"/>
<text text-anchor="middle" x="2076.04" y="-230.3" font-family="Times New Roman,serif" font-size="14.00">a...b when a≤b</text>
</g>
<!-- OtherOrdering&#45;&gt;Ellipsis -->
<g id="edge39" class="edge">
<title>OtherOrdering&#45;&gt;Ellipsis</title>
<path fill="none" stroke="black" d="M1496.76,-302.23C1575.01,-295.08 1788.15,-274.93 1965.04,-252 1980.27,-250.03 1996.63,-247.66 2011.99,-245.33"/>
<polygon fill="black" stroke="black" points="2012.56,-248.78 2021.91,-243.8 2011.5,-241.86 2012.56,-248.78"/>
</g>
<!-- Infimum -->
<g id="node27" class="node">
<title>Infimum</title>
<ellipse fill="none" stroke="black" cx="1824.04" cy="-234" rx="131.88" ry="18"/>
<text text-anchor="middle" x="1824.04" y="-230.3" font-family="Times New Roman,serif" font-size="14.00">infimum i.e. greatest lower bound</text>
</g>
<!-- OtherOrdering&#45;&gt;Infimum -->
<g id="edge40" class="edge">
<title>OtherOrdering&#45;&gt;Infimum</title>
<path fill="none" stroke="black" d="M1495.04,-299.33C1548.19,-288.94 1663.03,-266.48 1741.93,-251.06"/>
<polygon fill="black" stroke="black" points="1742.7,-254.47 1751.85,-249.12 1741.36,-247.6 1742.7,-254.47"/>
</g>
<!-- Supremum -->
<g id="node28" class="node">
<title>Supremum</title>
<ellipse fill="none" stroke="black" cx="967.04" cy="-234" rx="136.48" ry="18"/>
<text text-anchor="middle" x="967.04" y="-230.3" font-family="Times New Roman,serif" font-size="14.00">supremum i.e. least greatest bound</text>
</g>
<!-- OtherOrdering&#45;&gt;Supremum -->
<g id="edge41" class="edge">
<title>OtherOrdering&#45;&gt;Supremum</title>
<path fill="none" stroke="black" d="M1435.95,-300.78C1364.57,-290.77 1182.36,-265.2 1067.23,-249.05"/>
<polygon fill="black" stroke="black" points="1067.39,-245.54 1057,-247.62 1066.41,-252.47 1067.39,-245.54"/>
</g>
<!-- TransitivityOrdering -->
<g id="node29" class="node">
<title>TransitivityOrdering</title>
<ellipse fill="none" stroke="black" cx="1209.04" cy="-234" rx="87.18" ry="18"/>
<text text-anchor="middle" x="1209.04" y="-230.3" font-family="Times New Roman,serif" font-size="14.00">Transitivity of ≤, etc.</text>
</g>
<!-- OtherOrdering&#45;&gt;TransitivityOrdering -->
<g id="edge42" class="edge">
<title>OtherOrdering&#45;&gt;TransitivityOrdering</title>
<path fill="none" stroke="black" d="M1438.05,-297.38C1397.76,-286.4 1322.41,-265.88 1269.16,-251.38"/>
<polygon fill="black" stroke="black" points="1270.06,-247.99 1259.49,-248.74 1268.22,-254.75 1270.06,-247.99"/>
</g>
<!-- AdditionCancellationOrdered -->
<g id="node30" class="node">
<title>AdditionCancellationOrdered</title>
<ellipse fill="none" stroke="black" cx="1392.04" cy="-162" rx="94.48" ry="18"/>
<text text-anchor="middle" x="1392.04" y="-158.3" font-family="Times New Roman,serif" font-size="14.00">Cancellation of + for &lt;</text>
</g>
<!-- OtherOrdering&#45;&gt;AdditionCancellationOrdered -->
<g id="edge43" class="edge">
<title>OtherOrdering&#45;&gt;AdditionCancellationOrdered</title>
<path fill="none" stroke="black" d="M1481.79,-290.18C1499.16,-271.98 1522.73,-240.5 1507.04,-216 1496.34,-199.29 1478.89,-187.77 1460.78,-179.87"/>
<polygon fill="black" stroke="black" points="1461.86,-176.53 1451.28,-176.05 1459.26,-183.03 1461.86,-176.53"/>
</g>
<!-- MultiplicationCancellationOrdered -->
<g id="node31" class="node">
<title>MultiplicationCancellationOrdered</title>
<ellipse fill="none" stroke="black" cx="1406.04" cy="-234" rx="91.78" ry="18"/>
<text text-anchor="middle" x="1406.04" y="-230.3" font-family="Times New Roman,serif" font-size="14.00">Cancellation of · for &lt;</text>
</g>
<!-- OtherOrdering&#45;&gt;MultiplicationCancellationOrdered -->
<g id="edge44" class="edge">
<title>OtherOrdering&#45;&gt;MultiplicationCancellationOrdered</title>
<path fill="none" stroke="black" d="M1452.73,-289.46C1445.21,-280.69 1435.64,-269.53 1427.12,-259.6"/>
<polygon fill="black" stroke="black" points="1429.75,-257.28 1420.58,-251.96 1424.43,-261.83 1429.75,-257.28"/>
</g>
<!-- AncientSubtraction&#45;&gt;Trichotomy -->
<g id="edge46" class="edge">
<title>AncientSubtraction&#45;&gt;Trichotomy</title>
<path fill="none" stroke="black" d="M1608.47,-216.05C1605.89,-208.18 1602.74,-198.62 1599.85,-189.79"/>
<polygon fill="black" stroke="black" points="1603.16,-188.68 1596.72,-180.28 1596.51,-190.87 1603.16,-188.68"/>
</g>
<!-- AncientSubtraction&#45;&gt;WellOrdering -->
<g id="edge48" class="edge">
<title>AncientSubtraction&#45;&gt;WellOrdering</title>
<path fill="none" stroke="black" d="M1652.56,-220.16C1684.62,-209.47 1730.74,-194.1 1767.08,-181.99"/>
<polygon fill="black" stroke="black" points="1768.19,-185.31 1776.57,-178.83 1765.97,-178.67 1768.19,-185.31"/>
</g>
<!-- FiniteSequence -->
<g id="node35" class="node">
<title>FiniteSequence</title>
<ellipse fill="none" stroke="black" cx="2072.04" cy="-162" rx="72.29" ry="18"/>
<text text-anchor="middle" x="2072.04" y="-158.3" font-family="Times New Roman,serif" font-size="14.00">Finite Sequences</text>
</g>
<!-- Ellipsis&#45;&gt;FiniteSequence -->
<g id="edge54" class="edge">
<title>Ellipsis&#45;&gt;FiniteSequence</title>
<path fill="none" stroke="black" d="M2075.05,-215.7C2074.61,-207.98 2074.08,-198.71 2073.59,-190.11"/>
<polygon fill="black" stroke="black" points="2077.08,-189.89 2073.02,-180.1 2070.1,-190.29 2077.08,-189.89"/>
</g>
<!-- Infimum&#45;&gt;WellOrdering -->
<g id="edge49" class="edge">
<title>Infimum&#45;&gt;WellOrdering</title>
<path fill="none" stroke="black" d="M1824.04,-215.7C1824.04,-207.98 1824.04,-198.71 1824.04,-190.11"/>
<polygon fill="black" stroke="black" points="1827.54,-190.1 1824.04,-180.1 1820.54,-190.1 1827.54,-190.1"/>
</g>
<!-- AdditionCancellationOrdered&#45;&gt;DivisionAlgorithm -->
<g id="edge51" class="edge">
<title>AdditionCancellationOrdered&#45;&gt;DivisionAlgorithm</title>
<path fill="none" stroke="black" d="M1415.5,-144.41C1428.48,-135.24 1444.79,-123.7 1458.93,-113.71"/>
<polygon fill="black" stroke="black" points="1461.26,-116.34 1467.41,-107.71 1457.22,-110.63 1461.26,-116.34"/>
</g>
<!-- Trichotomy&#45;&gt;DivisionAlgorithm -->
<g id="edge52" class="edge">
<title>Trichotomy&#45;&gt;DivisionAlgorithm</title>
<path fill="none" stroke="black" d="M1567.6,-144.59C1554.5,-135.42 1537.97,-123.85 1523.63,-113.81"/>
<polygon fill="black" stroke="black" points="1525.23,-110.66 1515.04,-107.8 1521.22,-116.4 1525.23,-110.66"/>
</g>
<!-- WellOrdering&#45;&gt;DivisionAlgorithm -->
<g id="edge53" class="edge">
<title>WellOrdering&#45;&gt;DivisionAlgorithm</title>
<path fill="none" stroke="black" d="M1755.85,-146.67C1701.73,-135.29 1626.02,-119.37 1569.41,-107.47"/>
<polygon fill="black" stroke="black" points="1569.93,-104.01 1559.43,-105.38 1568.49,-110.86 1569.93,-104.01"/>
</g>
<!-- FiniteSequence&#45;&gt;ArithmeticTables -->
<g id="edge56" class="edge">
<title>FiniteSequence&#45;&gt;ArithmeticTables</title>
<path fill="none" stroke="black" d="M2084.15,-144.05C2090.16,-135.63 2097.56,-125.28 2104.21,-115.97"/>
<polygon fill="black" stroke="black" points="2107.09,-117.96 2110.05,-107.79 2101.39,-113.89 2107.09,-117.96"/>
</g>
</g>
</svg>
