<?xml version="1.0" encoding="UTF-8" standalone="no"?>
<!DOCTYPE svg PUBLIC "-//W3C//DTD SVG 1.1//EN"
 "http://www.w3.org/Graphics/SVG/1.1/DTD/svg11.dtd">
<!-- Generated by graphviz version 2.49.3 (20211023.0002)
 -->
<!-- Pages: 1 -->
<svg width="2281pt" height="620pt"
 viewBox="0.00 0.00 2281.39 620.00" xmlns="http://www.w3.org/2000/svg" xmlns:xlink="http://www.w3.org/1999/xlink">
<g id="graph0" class="graph" transform="scale(1 1) rotate(0) translate(4 616)">
<polygon fill="white" stroke="transparent" points="-4,4 -4,-616 2277.39,-616 2277.39,4 -4,4"/>
<!-- VonNeumann_N -->
<g id="node1" class="node">
<title>VonNeumann_N</title>
<ellipse fill="none" stroke="black" cx="938.89" cy="-594" rx="107.48" ry="18"/>
<text text-anchor="middle" x="938.89" y="-590.3" font-family="Times New Roman,serif" font-size="14.00">Von Neumann model of ℕ</text>
</g>
<!-- PeanoAxioms -->
<g id="node3" class="node">
<title>PeanoAxioms</title>
<ellipse fill="none" stroke="black" cx="1043.89" cy="-522" rx="83.69" ry="18"/>
<text text-anchor="middle" x="1043.89" y="-518.3" font-family="Times New Roman,serif" font-size="14.00">Peano axioms for ℕ</text>
</g>
<!-- VonNeumann_N&#45;&gt;PeanoAxioms -->
<g id="edge1" class="edge">
<title>VonNeumann_N&#45;&gt;PeanoAxioms</title>
<path fill="none" stroke="black" d="M963.78,-576.41C977.87,-567.02 995.67,-555.15 1010.92,-544.98"/>
<polygon fill="black" stroke="black" points="1013.17,-547.69 1019.55,-539.23 1009.29,-541.86 1013.17,-547.69"/>
</g>
<!-- Zermelo_N -->
<g id="node2" class="node">
<title>Zermelo_N</title>
<ellipse fill="none" stroke="black" cx="1148.89" cy="-594" rx="85.29" ry="18"/>
<text text-anchor="middle" x="1148.89" y="-590.3" font-family="Times New Roman,serif" font-size="14.00">Zermelo model of ℕ</text>
</g>
<!-- Zermelo_N&#45;&gt;PeanoAxioms -->
<g id="edge2" class="edge">
<title>Zermelo_N&#45;&gt;PeanoAxioms</title>
<path fill="none" stroke="black" d="M1124.27,-576.59C1110.19,-567.2 1092.33,-555.29 1077.02,-545.09"/>
<polygon fill="black" stroke="black" points="1078.62,-541.94 1068.36,-539.31 1074.73,-547.77 1078.62,-541.94"/>
</g>
<!-- Addition -->
<g id="node4" class="node">
<title>Addition</title>
<ellipse fill="none" stroke="black" cx="901.89" cy="-450" rx="63.89" ry="18"/>
<text text-anchor="middle" x="901.89" y="-446.3" font-family="Times New Roman,serif" font-size="14.00">Definition of +</text>
</g>
<!-- PeanoAxioms&#45;&gt;Addition -->
<g id="edge3" class="edge">
<title>PeanoAxioms&#45;&gt;Addition</title>
<path fill="none" stroke="black" d="M1012.02,-505.29C991.13,-494.99 963.67,-481.45 941.39,-470.47"/>
<polygon fill="black" stroke="black" points="942.71,-467.22 932.19,-465.94 939.62,-473.5 942.71,-467.22"/>
</g>
<!-- Digits -->
<g id="node7" class="node">
<title>Digits</title>
<ellipse fill="none" stroke="black" cx="1342.89" cy="-450" rx="77.99" ry="18"/>
<text text-anchor="middle" x="1342.89" y="-446.3" font-family="Times New Roman,serif" font-size="14.00">Definition of digits</text>
</g>
<!-- PeanoAxioms&#45;&gt;Digits -->
<g id="edge4" class="edge">
<title>PeanoAxioms&#45;&gt;Digits</title>
<path fill="none" stroke="black" d="M1098.39,-508.24C1149.76,-496.21 1226.7,-478.2 1280.51,-465.6"/>
<polygon fill="black" stroke="black" points="1281.34,-469.01 1290.28,-463.32 1279.74,-462.19 1281.34,-469.01"/>
</g>
<!-- Multiplication -->
<g id="node5" class="node">
<title>Multiplication</title>
<ellipse fill="none" stroke="black" cx="354.89" cy="-234" rx="61.99" ry="18"/>
<text text-anchor="middle" x="354.89" y="-230.3" font-family="Times New Roman,serif" font-size="14.00">Definition of ·</text>
</g>
<!-- Addition&#45;&gt;Multiplication -->
<g id="edge5" class="edge">
<title>Addition&#45;&gt;Multiplication</title>
<path fill="none" stroke="black" d="M839.46,-446.11C696.64,-438.06 353.08,-409.97 283.89,-324 273.86,-311.54 276.72,-302.3 283.89,-288 290.73,-274.37 302.91,-263.35 315.28,-254.96"/>
<polygon fill="black" stroke="black" points="317.23,-257.87 323.81,-249.57 313.49,-251.95 317.23,-257.87"/>
</g>
<!-- LinearTotalOrdering -->
<g id="node6" class="node">
<title>LinearTotalOrdering</title>
<ellipse fill="none" stroke="black" cx="1163.89" cy="-378" rx="63.89" ry="18"/>
<text text-anchor="middle" x="1163.89" y="-374.3" font-family="Times New Roman,serif" font-size="14.00">Definition of ≤</text>
</g>
<!-- Addition&#45;&gt;LinearTotalOrdering -->
<g id="edge6" class="edge">
<title>Addition&#45;&gt;LinearTotalOrdering</title>
<path fill="none" stroke="black" d="M946.63,-437.05C991.66,-425.02 1061.16,-406.45 1109.38,-393.56"/>
<polygon fill="black" stroke="black" points="1110.58,-396.87 1119.33,-390.9 1108.77,-390.1 1110.58,-396.87"/>
</g>
<!-- AdditionPeanoS -->
<g id="node8" class="node">
<title>AdditionPeanoS</title>
<ellipse fill="none" stroke="black" cx="1342.89" cy="-378" rx="44.69" ry="18"/>
<text text-anchor="middle" x="1342.89" y="-374.3" font-family="Times New Roman,serif" font-size="14.00">S(a)=a+1</text>
</g>
<!-- Addition&#45;&gt;AdditionPeanoS -->
<g id="edge7" class="edge">
<title>Addition&#45;&gt;AdditionPeanoS</title>
<path fill="none" stroke="black" d="M956.15,-440.45C1022.41,-430.01 1137.89,-411.77 1236.89,-396 1254.89,-393.13 1274.61,-389.97 1292.11,-387.17"/>
<polygon fill="black" stroke="black" points="1292.8,-390.6 1302.12,-385.56 1291.69,-383.69 1292.8,-390.6"/>
</g>
<!-- AdditionIdentity -->
<g id="node9" class="node">
<title>AdditionIdentity</title>
<ellipse fill="none" stroke="black" cx="694.89" cy="-378" rx="73.39" ry="18"/>
<text text-anchor="middle" x="694.89" y="-374.3" font-family="Times New Roman,serif" font-size="14.00">0 is identity for +</text>
</g>
<!-- Addition&#45;&gt;AdditionIdentity -->
<g id="edge9" class="edge">
<title>Addition&#45;&gt;AdditionIdentity</title>
<path fill="none" stroke="black" d="M862.47,-435.67C829.44,-424.5 782.07,-408.48 746.11,-396.32"/>
<polygon fill="black" stroke="black" points="746.89,-392.89 736.3,-393 744.65,-399.52 746.89,-392.89"/>
</g>
<!-- AdditionAssociativity -->
<g id="node10" class="node">
<title>AdditionAssociativity</title>
<ellipse fill="none" stroke="black" cx="901.89" cy="-378" rx="75.29" ry="18"/>
<text text-anchor="middle" x="901.89" y="-374.3" font-family="Times New Roman,serif" font-size="14.00">Associativity of +</text>
</g>
<!-- Addition&#45;&gt;AdditionAssociativity -->
<g id="edge10" class="edge">
<title>Addition&#45;&gt;AdditionAssociativity</title>
<path fill="none" stroke="black" d="M901.89,-431.7C901.89,-423.98 901.89,-414.71 901.89,-406.11"/>
<polygon fill="black" stroke="black" points="905.39,-406.1 901.89,-396.1 898.39,-406.1 905.39,-406.1"/>
</g>
<!-- AdditionCommutativityZero -->
<g id="node13" class="node">
<title>AdditionCommutativityZero</title>
<ellipse fill="none" stroke="black" cx="394.89" cy="-306" rx="102.08" ry="18"/>
<text text-anchor="middle" x="394.89" y="-302.3" font-family="Times New Roman,serif" font-size="14.00">Commutativity of + for 0</text>
</g>
<!-- Addition&#45;&gt;AdditionCommutativityZero -->
<g id="edge11" class="edge">
<title>Addition&#45;&gt;AdditionCommutativityZero</title>
<path fill="none" stroke="black" d="M875.07,-433.56C858.22,-423.5 836.26,-409.73 817.89,-396 798.47,-381.48 798.96,-370.05 776.89,-360 668.33,-310.53 629.02,-340.65 510.89,-324 501.07,-322.62 490.78,-321.14 480.56,-319.66"/>
<polygon fill="black" stroke="black" points="480.78,-316.16 470.38,-318.19 479.77,-323.09 480.78,-316.16"/>
</g>
<!-- MultiplicationIdentityLeft -->
<g id="node16" class="node">
<title>MultiplicationIdentityLeft</title>
<ellipse fill="none" stroke="black" cx="745.89" cy="-162" rx="84.49" ry="18"/>
<text text-anchor="middle" x="745.89" y="-158.3" font-family="Times New Roman,serif" font-size="14.00">1 is left identity for ·</text>
</g>
<!-- Multiplication&#45;&gt;MultiplicationIdentityLeft -->
<g id="edge22" class="edge">
<title>Multiplication&#45;&gt;MultiplicationIdentityLeft</title>
<path fill="none" stroke="black" d="M406.32,-223.93C465.73,-213.44 566.4,-195.6 652.89,-180 659.67,-178.78 666.73,-177.5 673.8,-176.21"/>
<polygon fill="black" stroke="black" points="674.91,-179.57 684.12,-174.33 673.65,-172.68 674.91,-179.57"/>
</g>
<!-- MultiplicationIdentityRight -->
<g id="node17" class="node">
<title>MultiplicationIdentityRight</title>
<ellipse fill="none" stroke="black" cx="296.89" cy="-162" rx="89.08" ry="18"/>
<text text-anchor="middle" x="296.89" y="-158.3" font-family="Times New Roman,serif" font-size="14.00">1 is right identity for ·</text>
</g>
<!-- Multiplication&#45;&gt;MultiplicationIdentityRight -->
<g id="edge20" class="edge">
<title>Multiplication&#45;&gt;MultiplicationIdentityRight</title>
<path fill="none" stroke="black" d="M341.15,-216.41C334.1,-207.91 325.37,-197.37 317.53,-187.91"/>
<polygon fill="black" stroke="black" points="320.02,-185.42 310.94,-179.96 314.63,-189.89 320.02,-185.42"/>
</g>
<!-- MultiplicationAnnihilatorLeft -->
<g id="node19" class="node">
<title>MultiplicationAnnihilatorLeft</title>
<ellipse fill="none" stroke="black" cx="94.89" cy="-162" rx="94.78" ry="18"/>
<text text-anchor="middle" x="94.89" y="-158.3" font-family="Times New Roman,serif" font-size="14.00">0 is left annihilator for ·</text>
</g>
<!-- Multiplication&#45;&gt;MultiplicationAnnihilatorLeft -->
<g id="edge25" class="edge">
<title>Multiplication&#45;&gt;MultiplicationAnnihilatorLeft</title>
<path fill="none" stroke="black" d="M311.08,-221.2C268.93,-209.86 204.76,-192.58 157.28,-179.8"/>
<polygon fill="black" stroke="black" points="157.98,-176.36 147.41,-177.14 156.16,-183.12 157.98,-176.36"/>
</g>
<!-- MultiplicationRightDistributiveOverAddition -->
<g id="node20" class="node">
<title>MultiplicationRightDistributiveOverAddition</title>
<ellipse fill="none" stroke="black" cx="523.89" cy="-162" rx="119.68" ry="18"/>
<text text-anchor="middle" x="523.89" y="-158.3" font-family="Times New Roman,serif" font-size="14.00">Right distributivity of · over +</text>
</g>
<!-- Multiplication&#45;&gt;MultiplicationRightDistributiveOverAddition -->
<g id="edge27" class="edge">
<title>Multiplication&#45;&gt;MultiplicationRightDistributiveOverAddition</title>
<path fill="none" stroke="black" d="M389.09,-218.83C413.94,-208.54 447.91,-194.47 475.53,-183.03"/>
<polygon fill="black" stroke="black" points="477.11,-186.16 485.01,-179.1 474.44,-179.7 477.11,-186.16"/>
</g>
<!-- OtherOrdering -->
<g id="node24" class="node">
<title>OtherOrdering</title>
<ellipse fill="none" stroke="black" cx="1333.89" cy="-306" rx="31.4" ry="18"/>
<text text-anchor="middle" x="1333.89" y="-302.3" font-family="Times New Roman,serif" font-size="14.00">&lt; &gt; ≥</text>
</g>
<!-- LinearTotalOrdering&#45;&gt;OtherOrdering -->
<g id="edge37" class="edge">
<title>LinearTotalOrdering&#45;&gt;OtherOrdering</title>
<path fill="none" stroke="black" d="M1198.29,-362.83C1227.84,-350.67 1270.22,-333.22 1299.71,-321.08"/>
<polygon fill="black" stroke="black" points="1301.26,-324.22 1309.17,-317.18 1298.6,-317.75 1301.26,-324.22"/>
</g>
<!-- Digits&#45;&gt;AdditionPeanoS -->
<g id="edge8" class="edge">
<title>Digits&#45;&gt;AdditionPeanoS</title>
<path fill="none" stroke="black" d="M1342.89,-431.7C1342.89,-423.98 1342.89,-414.71 1342.89,-406.11"/>
<polygon fill="black" stroke="black" points="1346.39,-406.1 1342.89,-396.1 1339.39,-406.1 1346.39,-406.1"/>
</g>
<!-- ArithmeticTables -->
<g id="node35" class="node">
<title>ArithmeticTables</title>
<ellipse fill="none" stroke="black" cx="2201.89" cy="-90" rx="71.49" ry="18"/>
<text text-anchor="middle" x="2201.89" y="-86.3" font-family="Times New Roman,serif" font-size="14.00">Arithmetic tables</text>
</g>
<!-- Digits&#45;&gt;ArithmeticTables -->
<g id="edge51" class="edge">
<title>Digits&#45;&gt;ArithmeticTables</title>
<path fill="none" stroke="black" d="M1418.05,-445.15C1635.84,-432.99 2251.89,-391.16 2251.89,-307 2251.89,-307 2251.89,-307 2251.89,-233 2251.89,-192.55 2247.51,-181.71 2232.89,-144 2229.27,-134.66 2224.13,-125.03 2219.07,-116.59"/>
<polygon fill="black" stroke="black" points="2221.95,-114.59 2213.69,-107.96 2216.01,-118.3 2221.95,-114.59"/>
</g>
<!-- AdditionCancellation -->
<g id="node12" class="node">
<title>AdditionCancellation</title>
<ellipse fill="none" stroke="black" cx="694.89" cy="-306" rx="89.08" ry="18"/>
<text text-anchor="middle" x="694.89" y="-302.3" font-family="Times New Roman,serif" font-size="14.00">Cancellation rule of +</text>
</g>
<!-- AdditionPeanoS&#45;&gt;AdditionCancellation -->
<g id="edge16" class="edge">
<title>AdditionPeanoS&#45;&gt;AdditionCancellation</title>
<path fill="none" stroke="black" d="M1302.73,-369.8C1282.95,-366.45 1258.73,-362.63 1236.89,-360 1040.33,-336.31 989.29,-348.94 792.89,-324 784.7,-322.96 776.16,-321.72 767.67,-320.38"/>
<polygon fill="black" stroke="black" points="768.19,-316.92 757.76,-318.78 767.07,-323.83 768.19,-316.92"/>
</g>
<!-- AdditionCommutativityOne -->
<g id="node14" class="node">
<title>AdditionCommutativityOne</title>
<ellipse fill="none" stroke="black" cx="903.89" cy="-306" rx="102.08" ry="18"/>
<text text-anchor="middle" x="903.89" y="-302.3" font-family="Times New Roman,serif" font-size="14.00">Commutativity of + for 1</text>
</g>
<!-- AdditionPeanoS&#45;&gt;AdditionCommutativityOne -->
<g id="edge12" class="edge">
<title>AdditionPeanoS&#45;&gt;AdditionCommutativityOne</title>
<path fill="none" stroke="black" d="M1302.12,-370.45C1282.42,-367.29 1258.42,-363.44 1236.89,-360 1151.8,-346.41 1054.47,-330.92 987.11,-320.22"/>
<polygon fill="black" stroke="black" points="987.4,-316.72 976.98,-318.61 986.3,-323.63 987.4,-316.72"/>
</g>
<!-- AdditionPeanoS&#45;&gt;MultiplicationIdentityLeft -->
<g id="edge23" class="edge">
<title>AdditionPeanoS&#45;&gt;MultiplicationIdentityLeft</title>
<path fill="none" stroke="black" d="M1376.57,-365.98C1446.53,-341.46 1596.31,-279.53 1536.89,-216 1513.37,-190.85 1043.25,-172.63 839.14,-165.88"/>
<polygon fill="black" stroke="black" points="839.14,-162.38 829.03,-165.55 838.91,-169.37 839.14,-162.38"/>
</g>
<!-- MultiplicationLeftDistributiveOverAddition -->
<g id="node21" class="node">
<title>MultiplicationLeftDistributiveOverAddition</title>
<ellipse fill="none" stroke="black" cx="703.89" cy="-90" rx="114.28" ry="18"/>
<text text-anchor="middle" x="703.89" y="-86.3" font-family="Times New Roman,serif" font-size="14.00">Left distributivity of · over +</text>
</g>
<!-- AdditionPeanoS&#45;&gt;MultiplicationLeftDistributiveOverAddition -->
<g id="edge30" class="edge">
<title>AdditionPeanoS&#45;&gt;MultiplicationLeftDistributiveOverAddition</title>
<path fill="none" stroke="black" d="M1387.6,-375.5C1502.6,-371.19 1806.24,-356.96 1900.89,-324 1956.42,-304.66 1983.82,-303.67 2011.89,-252 2035.24,-209.03 2029.4,-174.14 1990.89,-144 1945.58,-108.54 1141.17,-95.84 827.6,-92.22"/>
<polygon fill="black" stroke="black" points="827.6,-88.72 817.56,-92.11 827.52,-95.72 827.6,-88.72"/>
</g>
<!-- WellOrdering -->
<g id="node33" class="node">
<title>WellOrdering</title>
<ellipse fill="silver" stroke="black" cx="1853.89" cy="-162" rx="128.08" ry="18"/>
<text text-anchor="middle" x="1853.89" y="-158.3" font-family="Times New Roman,serif" font-size="14.00">well ordering of natural numbers</text>
</g>
<!-- AdditionPeanoS&#45;&gt;WellOrdering -->
<g id="edge47" class="edge">
<title>AdditionPeanoS&#45;&gt;WellOrdering</title>
<path fill="none" stroke="black" d="M1387.63,-375.52C1521.93,-370.04 1917.15,-346.06 1994.89,-252 2005.08,-239.67 2004,-229.15 1994.89,-216 1983.06,-198.91 1964.98,-187.32 1945.67,-179.47"/>
<polygon fill="black" stroke="black" points="1946.71,-176.12 1936.12,-175.9 1944.26,-182.68 1946.71,-176.12"/>
</g>
<!-- AdditionIdentity&#45;&gt;AdditionCancellation -->
<g id="edge17" class="edge">
<title>AdditionIdentity&#45;&gt;AdditionCancellation</title>
<path fill="none" stroke="black" d="M694.89,-359.7C694.89,-351.98 694.89,-342.71 694.89,-334.11"/>
<polygon fill="black" stroke="black" points="698.39,-334.1 694.89,-324.1 691.39,-334.1 698.39,-334.1"/>
</g>
<!-- AdditionIdentity&#45;&gt;MultiplicationIdentityRight -->
<g id="edge21" class="edge">
<title>AdditionIdentity&#45;&gt;MultiplicationIdentityRight</title>
<path fill="none" stroke="black" d="M624.01,-372.89C512.38,-365.67 305.95,-349.09 283.89,-324 251.36,-287.01 269.6,-224.98 284.24,-189.69"/>
<polygon fill="black" stroke="black" points="287.65,-190.63 288.42,-180.07 281.23,-187.84 287.65,-190.63"/>
</g>
<!-- AdditionAssociativity&#45;&gt;AdditionCommutativityOne -->
<g id="edge13" class="edge">
<title>AdditionAssociativity&#45;&gt;AdditionCommutativityOne</title>
<path fill="none" stroke="black" d="M902.39,-359.7C902.61,-351.98 902.87,-342.71 903.12,-334.11"/>
<polygon fill="black" stroke="black" points="906.62,-334.2 903.4,-324.1 899.62,-334 906.62,-334.2"/>
</g>
<!-- AdditionAssociativity&#45;&gt;MultiplicationRightDistributiveOverAddition -->
<g id="edge28" class="edge">
<title>AdditionAssociativity&#45;&gt;MultiplicationRightDistributiveOverAddition</title>
<path fill="none" stroke="black" d="M844.79,-366.03C833.88,-363.98 822.54,-361.9 811.89,-360 716.51,-343.01 688.52,-355.49 596.89,-324 565.11,-313.08 481.09,-280.87 463.89,-252 455.7,-238.25 457.31,-230.59 463.89,-216 469.21,-204.2 478.6,-193.98 488.39,-185.74"/>
<polygon fill="black" stroke="black" points="490.55,-188.49 496.26,-179.57 486.23,-182.98 490.55,-188.49"/>
</g>
<!-- AdditionCommutativity -->
<g id="node11" class="node">
<title>AdditionCommutativity</title>
<ellipse fill="none" stroke="black" cx="554.89" cy="-234" rx="81.79" ry="18"/>
<text text-anchor="middle" x="554.89" y="-230.3" font-family="Times New Roman,serif" font-size="14.00">Commutativity of +</text>
</g>
<!-- AdditionCommutativity&#45;&gt;MultiplicationIdentityLeft -->
<g id="edge24" class="edge">
<title>AdditionCommutativity&#45;&gt;MultiplicationIdentityLeft</title>
<path fill="none" stroke="black" d="M595.4,-218.15C624.77,-207.39 664.68,-192.76 696.01,-181.28"/>
<polygon fill="black" stroke="black" points="697.26,-184.55 705.44,-177.82 694.85,-177.98 697.26,-184.55"/>
</g>
<!-- AdditionCommutativity&#45;&gt;MultiplicationRightDistributiveOverAddition -->
<g id="edge29" class="edge">
<title>AdditionCommutativity&#45;&gt;MultiplicationRightDistributiveOverAddition</title>
<path fill="none" stroke="black" d="M547.39,-216.05C543.86,-208.09 539.57,-198.41 535.63,-189.51"/>
<polygon fill="black" stroke="black" points="538.79,-188 531.54,-180.28 532.39,-190.84 538.79,-188"/>
</g>
<!-- Trichotomy -->
<g id="node32" class="node">
<title>Trichotomy</title>
<ellipse fill="none" stroke="black" cx="1293.89" cy="-162" rx="87.18" ry="18"/>
<text text-anchor="middle" x="1293.89" y="-158.3" font-family="Times New Roman,serif" font-size="14.00">Trichotomy of &lt; = &gt;</text>
</g>
<!-- AdditionCommutativity&#45;&gt;Trichotomy -->
<g id="edge45" class="edge">
<title>AdditionCommutativity&#45;&gt;Trichotomy</title>
<path fill="none" stroke="black" d="M613,-221.22C623.9,-219.28 635.22,-217.43 645.89,-216 842.23,-189.7 1073.91,-174.55 1200.2,-167.63"/>
<polygon fill="black" stroke="black" points="1200.43,-171.12 1210.23,-167.08 1200.05,-164.13 1200.43,-171.12"/>
</g>
<!-- AdditionCommutativityZero&#45;&gt;AdditionCommutativity -->
<g id="edge14" class="edge">
<title>AdditionCommutativityZero&#45;&gt;AdditionCommutativity</title>
<path fill="none" stroke="black" d="M431.2,-289.12C454.74,-278.81 485.57,-265.33 510.56,-254.39"/>
<polygon fill="black" stroke="black" points="512.07,-257.55 519.83,-250.34 509.26,-251.14 512.07,-257.55"/>
</g>
<!-- AdditionCommutativityOne&#45;&gt;AdditionCommutativity -->
<g id="edge15" class="edge">
<title>AdditionCommutativityOne&#45;&gt;AdditionCommutativity</title>
<path fill="none" stroke="black" d="M839.07,-292C777.72,-279.69 685.98,-261.29 623.44,-248.75"/>
<polygon fill="black" stroke="black" points="623.77,-245.25 613.28,-246.71 622.4,-252.11 623.77,-245.25"/>
</g>
<!-- MultiplicationIdentity -->
<g id="node15" class="node">
<title>MultiplicationIdentity</title>
<ellipse fill="none" stroke="black" cx="500.89" cy="-90" rx="70.69" ry="18"/>
<text text-anchor="middle" x="500.89" y="-86.3" font-family="Times New Roman,serif" font-size="14.00">1 is identity for ·</text>
</g>
<!-- MultiplicationCommutativity -->
<g id="node23" class="node">
<title>MultiplicationCommutativity</title>
<ellipse fill="none" stroke="black" cx="564.89" cy="-18" rx="79.09" ry="18"/>
<text text-anchor="middle" x="564.89" y="-14.3" font-family="Times New Roman,serif" font-size="14.00">Commutativity of ·</text>
</g>
<!-- MultiplicationIdentity&#45;&gt;MultiplicationCommutativity -->
<g id="edge35" class="edge">
<title>MultiplicationIdentity&#45;&gt;MultiplicationCommutativity</title>
<path fill="none" stroke="black" d="M516.06,-72.41C523.99,-63.73 533.86,-52.95 542.64,-43.34"/>
<polygon fill="black" stroke="black" points="545.22,-45.7 549.39,-35.96 540.06,-40.97 545.22,-45.7"/>
</g>
<!-- MultiplicationIdentityLeft&#45;&gt;MultiplicationIdentity -->
<g id="edge18" class="edge">
<title>MultiplicationIdentityLeft&#45;&gt;MultiplicationIdentity</title>
<path fill="none" stroke="black" d="M697.49,-147.17C656.73,-135.53 598.45,-118.88 555.93,-106.73"/>
<polygon fill="black" stroke="black" points="556.88,-103.36 546.3,-103.97 554.95,-110.09 556.88,-103.36"/>
</g>
<!-- MultiplicationIdentityLeft&#45;&gt;MultiplicationLeftDistributiveOverAddition -->
<g id="edge31" class="edge">
<title>MultiplicationIdentityLeft&#45;&gt;MultiplicationLeftDistributiveOverAddition</title>
<path fill="none" stroke="black" d="M735.72,-144.05C730.84,-135.92 724.89,-126 719.46,-116.94"/>
<polygon fill="black" stroke="black" points="722.4,-115.05 714.26,-108.28 716.4,-118.65 722.4,-115.05"/>
</g>
<!-- MultiplicationIdentityRight&#45;&gt;MultiplicationIdentity -->
<g id="edge19" class="edge">
<title>MultiplicationIdentityRight&#45;&gt;MultiplicationIdentity</title>
<path fill="none" stroke="black" d="M340.15,-146.15C372.52,-135.05 416.84,-119.84 450.75,-108.21"/>
<polygon fill="black" stroke="black" points="452.14,-111.43 460.47,-104.87 449.87,-104.81 452.14,-111.43"/>
</g>
<!-- MultiplicationAssociativity -->
<g id="node22" class="node">
<title>MultiplicationAssociativity</title>
<ellipse fill="none" stroke="black" cx="374.89" cy="-18" rx="73.39" ry="18"/>
<text text-anchor="middle" x="374.89" y="-14.3" font-family="Times New Roman,serif" font-size="14.00">Associativity of ·</text>
</g>
<!-- MultiplicationIdentityRight&#45;&gt;MultiplicationAssociativity -->
<g id="edge33" class="edge">
<title>MultiplicationIdentityRight&#45;&gt;MultiplicationAssociativity</title>
<path fill="none" stroke="black" d="M306.3,-143.87C319.77,-119.35 344.66,-74.03 360.47,-45.26"/>
<polygon fill="black" stroke="black" points="363.7,-46.64 365.45,-36.19 357.57,-43.27 363.7,-46.64"/>
</g>
<!-- MultiplicationAnnihilator -->
<g id="node18" class="node">
<title>MultiplicationAnnihilator</title>
<ellipse fill="none" stroke="black" cx="94.89" cy="-90" rx="81.49" ry="18"/>
<text text-anchor="middle" x="94.89" y="-86.3" font-family="Times New Roman,serif" font-size="14.00">0 is annihilator for ·</text>
</g>
<!-- MultiplicationAnnihilatorLeft&#45;&gt;MultiplicationAnnihilator -->
<g id="edge26" class="edge">
<title>MultiplicationAnnihilatorLeft&#45;&gt;MultiplicationAnnihilator</title>
<path fill="none" stroke="black" d="M94.89,-143.7C94.89,-135.98 94.89,-126.71 94.89,-118.11"/>
<polygon fill="black" stroke="black" points="98.39,-118.1 94.89,-108.1 91.39,-118.1 98.39,-118.1"/>
</g>
<!-- MultiplicationRightDistributiveOverAddition&#45;&gt;MultiplicationLeftDistributiveOverAddition -->
<g id="edge32" class="edge">
<title>MultiplicationRightDistributiveOverAddition&#45;&gt;MultiplicationLeftDistributiveOverAddition</title>
<path fill="none" stroke="black" d="M565.19,-144.94C591.46,-134.72 625.66,-121.42 653.53,-110.59"/>
<polygon fill="black" stroke="black" points="655.05,-113.75 663.1,-106.86 652.51,-107.23 655.05,-113.75"/>
</g>
<!-- MultiplicationLeftDistributiveOverAddition&#45;&gt;MultiplicationAssociativity -->
<g id="edge34" class="edge">
<title>MultiplicationLeftDistributiveOverAddition&#45;&gt;MultiplicationAssociativity</title>
<path fill="none" stroke="black" d="M638.89,-75.17C580.77,-62.8 496.1,-44.79 438.43,-32.52"/>
<polygon fill="black" stroke="black" points="438.86,-29.03 428.35,-30.37 437.4,-35.88 438.86,-29.03"/>
</g>
<!-- MultiplicationLeftDistributiveOverAddition&#45;&gt;MultiplicationCommutativity -->
<g id="edge36" class="edge">
<title>MultiplicationLeftDistributiveOverAddition&#45;&gt;MultiplicationCommutativity</title>
<path fill="none" stroke="black" d="M671.3,-72.59C651.45,-62.59 625.94,-49.74 604.87,-39.13"/>
<polygon fill="black" stroke="black" points="606.35,-35.96 595.85,-34.59 603.2,-42.21 606.35,-35.96"/>
</g>
<!-- AncientSubtraction -->
<g id="node25" class="node">
<title>AncientSubtraction</title>
<ellipse fill="none" stroke="black" cx="1643.89" cy="-234" rx="59.59" ry="18"/>
<text text-anchor="middle" x="1643.89" y="-230.3" font-family="Times New Roman,serif" font-size="14.00">b&#45;a when a≤b</text>
</g>
<!-- OtherOrdering&#45;&gt;AncientSubtraction -->
<g id="edge38" class="edge">
<title>OtherOrdering&#45;&gt;AncientSubtraction</title>
<path fill="none" stroke="black" d="M1362.5,-298.54C1413.61,-287 1521.46,-262.65 1587.79,-247.67"/>
<polygon fill="black" stroke="black" points="1588.69,-251.05 1597.67,-245.44 1587.14,-244.23 1588.69,-251.05"/>
</g>
<!-- Ellipsis -->
<g id="node26" class="node">
<title>Ellipsis</title>
<ellipse fill="none" stroke="black" cx="2147.89" cy="-234" rx="64.19" ry="18"/>
<text text-anchor="middle" x="2147.89" y="-230.3" font-family="Times New Roman,serif" font-size="14.00">a...b when a≤b</text>
</g>
<!-- OtherOrdering&#45;&gt;Ellipsis -->
<g id="edge39" class="edge">
<title>OtherOrdering&#45;&gt;Ellipsis</title>
<path fill="none" stroke="black" d="M1364.89,-302.85C1459.45,-296.23 1752.51,-275.18 1994.89,-252 2022.73,-249.34 2053.37,-246.01 2079.87,-243.01"/>
<polygon fill="black" stroke="black" points="2080.27,-246.49 2089.81,-241.88 2079.48,-239.53 2080.27,-246.49"/>
</g>
<!-- Infinum -->
<g id="node27" class="node">
<title>Infinum</title>
<ellipse fill="none" stroke="black" cx="1853.89" cy="-234" rx="131.88" ry="18"/>
<text text-anchor="middle" x="1853.89" y="-230.3" font-family="Times New Roman,serif" font-size="14.00">infimum i.e. greatest lower bound</text>
</g>
<!-- OtherOrdering&#45;&gt;Infinum -->
<g id="edge40" class="edge">
<title>OtherOrdering&#45;&gt;Infinum</title>
<path fill="none" stroke="black" d="M1364.1,-300.93C1438.52,-290.92 1633.39,-264.68 1753.7,-248.49"/>
<polygon fill="black" stroke="black" points="1754.22,-251.95 1763.66,-247.15 1753.28,-245.01 1754.22,-251.95"/>
</g>
<!-- Supremum -->
<g id="node28" class="node">
<title>Supremum</title>
<ellipse fill="none" stroke="black" cx="790.89" cy="-234" rx="136.48" ry="18"/>
<text text-anchor="middle" x="790.89" y="-230.3" font-family="Times New Roman,serif" font-size="14.00">supremum i.e. least greatest bound</text>
</g>
<!-- OtherOrdering&#45;&gt;Supremum -->
<g id="edge41" class="edge">
<title>OtherOrdering&#45;&gt;Supremum</title>
<path fill="none" stroke="black" d="M1303.53,-301.09C1226.55,-291.16 1020.9,-264.65 894.7,-248.38"/>
<polygon fill="black" stroke="black" points="895,-244.89 884.63,-247.08 894.1,-251.83 895,-244.89"/>
</g>
<!-- TransitivityOrdering -->
<g id="node29" class="node">
<title>TransitivityOrdering</title>
<ellipse fill="none" stroke="black" cx="1032.89" cy="-234" rx="87.18" ry="18"/>
<text text-anchor="middle" x="1032.89" y="-230.3" font-family="Times New Roman,serif" font-size="14.00">Transitivity of ≤, etc.</text>
</g>
<!-- OtherOrdering&#45;&gt;TransitivityOrdering -->
<g id="edge42" class="edge">
<title>OtherOrdering&#45;&gt;TransitivityOrdering</title>
<path fill="none" stroke="black" d="M1305.57,-298.41C1258.55,-287.48 1163.16,-265.29 1098.62,-250.29"/>
<polygon fill="black" stroke="black" points="1099.07,-246.8 1088.54,-247.94 1097.49,-253.62 1099.07,-246.8"/>
</g>
<!-- AdditionCancellationOrdered -->
<g id="node30" class="node">
<title>AdditionCancellationOrdered</title>
<ellipse fill="none" stroke="black" cx="1231.89" cy="-234" rx="94.48" ry="18"/>
<text text-anchor="middle" x="1231.89" y="-230.3" font-family="Times New Roman,serif" font-size="14.00">Cancellation of + for &lt;</text>
</g>
<!-- OtherOrdering&#45;&gt;AdditionCancellationOrdered -->
<g id="edge43" class="edge">
<title>OtherOrdering&#45;&gt;AdditionCancellationOrdered</title>
<path fill="none" stroke="black" d="M1314.22,-291.5C1300.03,-281.76 1280.54,-268.39 1264.09,-257.1"/>
<polygon fill="black" stroke="black" points="1266.03,-254.18 1255.81,-251.41 1262.07,-259.96 1266.03,-254.18"/>
</g>
<!-- MultiplicationCancellationOrdered -->
<g id="node31" class="node">
<title>MultiplicationCancellationOrdered</title>
<ellipse fill="none" stroke="black" cx="1435.89" cy="-234" rx="91.78" ry="18"/>
<text text-anchor="middle" x="1435.89" y="-230.3" font-family="Times New Roman,serif" font-size="14.00">Cancellation of · for &lt;</text>
</g>
<!-- OtherOrdering&#45;&gt;MultiplicationCancellationOrdered -->
<g id="edge44" class="edge">
<title>OtherOrdering&#45;&gt;MultiplicationCancellationOrdered</title>
<path fill="none" stroke="black" d="M1353.56,-291.5C1367.76,-281.76 1387.24,-268.39 1403.69,-257.1"/>
<polygon fill="black" stroke="black" points="1405.71,-259.96 1411.98,-251.41 1401.75,-254.18 1405.71,-259.96"/>
</g>
<!-- AncientSubtraction&#45;&gt;Trichotomy -->
<g id="edge46" class="edge">
<title>AncientSubtraction&#45;&gt;Trichotomy</title>
<path fill="none" stroke="black" d="M1598.16,-222.22C1588.82,-220.1 1579.05,-217.93 1569.89,-216 1501.35,-201.55 1422.88,-186.64 1367.18,-176.33"/>
<polygon fill="black" stroke="black" points="1367.52,-172.83 1357.05,-174.46 1366.25,-179.72 1367.52,-172.83"/>
</g>
<!-- AncientSubtraction&#45;&gt;WellOrdering -->
<g id="edge48" class="edge">
<title>AncientSubtraction&#45;&gt;WellOrdering</title>
<path fill="none" stroke="black" d="M1682.41,-220.16C1714.47,-209.47 1760.59,-194.1 1796.93,-181.99"/>
<polygon fill="black" stroke="black" points="1798.04,-185.31 1806.42,-178.83 1795.82,-178.67 1798.04,-185.31"/>
</g>
<!-- FiniteSequence -->
<g id="node34" class="node">
<title>FiniteSequence</title>
<ellipse fill="none" stroke="black" cx="2151.89" cy="-162" rx="72.29" ry="18"/>
<text text-anchor="middle" x="2151.89" y="-158.3" font-family="Times New Roman,serif" font-size="14.00">Finite Sequences</text>
</g>
<!-- Ellipsis&#45;&gt;FiniteSequence -->
<g id="edge50" class="edge">
<title>Ellipsis&#45;&gt;FiniteSequence</title>
<path fill="none" stroke="black" d="M2148.88,-215.7C2149.32,-207.98 2149.85,-198.71 2150.34,-190.11"/>
<polygon fill="black" stroke="black" points="2153.84,-190.29 2150.91,-180.1 2146.85,-189.89 2153.84,-190.29"/>
</g>
<!-- Infinum&#45;&gt;WellOrdering -->
<g id="edge49" class="edge">
<title>Infinum&#45;&gt;WellOrdering</title>
<path fill="none" stroke="black" d="M1853.89,-215.7C1853.89,-207.98 1853.89,-198.71 1853.89,-190.11"/>
<polygon fill="black" stroke="black" points="1857.39,-190.1 1853.89,-180.1 1850.39,-190.1 1857.39,-190.1"/>
</g>
<!-- FiniteSequence&#45;&gt;ArithmeticTables -->
<g id="edge52" class="edge">
<title>FiniteSequence&#45;&gt;ArithmeticTables</title>
<path fill="none" stroke="black" d="M2164,-144.05C2170.01,-135.63 2177.41,-125.28 2184.06,-115.97"/>
<polygon fill="black" stroke="black" points="2186.94,-117.96 2189.9,-107.79 2181.24,-113.89 2186.94,-117.96"/>
</g>
</g>
</svg>
