<?xml version="1.0" encoding="UTF-8" standalone="no"?>
<!DOCTYPE svg PUBLIC "-//W3C//DTD SVG 1.1//EN"
 "http://www.w3.org/Graphics/SVG/1.1/DTD/svg11.dtd">
<!-- Generated by graphviz version 2.49.3 (20211023.0002)
 -->
<!-- Pages: 1 -->
<svg width="657pt" height="404pt"
 viewBox="0.00 0.00 657.34 404.00" xmlns="http://www.w3.org/2000/svg" xmlns:xlink="http://www.w3.org/1999/xlink">
<g id="graph0" class="graph" transform="scale(1 1) rotate(0) translate(4 400)">
<polygon fill="white" stroke="transparent" points="-4,4 -4,-400 653.34,-400 653.34,4 -4,4"/>
<g id="clust4" class="cluster">
<title>clusterNotationFiniteSequence</title>
<polygon fill="none" stroke="black" points="387.34,-136 387.34,-260 641.34,-260 641.34,-136 387.34,-136"/>
</g>
<!-- Ur -->
<g id="node1" class="node">
<title>Ur</title>
<ellipse fill="none" stroke="black" cx="199.34" cy="-378" rx="70.69" ry="18"/>
<text text-anchor="start" x="152.84" y="-375.3" font-family="Times New Roman,serif" font-weight="bold" font-size="14.00">Ur</text>
<text text-anchor="start" x="168.84" y="-375.3" font-family="Times New Roman,serif" font-size="14.00"> (ur&#45;elements)</text>
</g>
<!-- TextualGlyph -->
<g id="node2" class="node">
<title>TextualGlyph</title>
<ellipse fill="none" stroke="black" cx="199.34" cy="-306" rx="63.89" ry="18"/>
<text text-anchor="middle" x="199.34" y="-302.3" font-family="Times New Roman,serif" font-size="14.00">Textual glyphs</text>
</g>
<!-- Ur&#45;&gt;TextualGlyph -->
<g id="edge2" class="edge">
<title>Ur&#45;&gt;TextualGlyph</title>
<path fill="none" stroke="black" d="M199.34,-359.7C199.34,-351.98 199.34,-342.71 199.34,-334.11"/>
<polygon fill="black" stroke="black" points="202.84,-334.1 199.34,-324.1 195.84,-334.1 202.84,-334.1"/>
</g>
<!-- FormalAlphabet -->
<g id="node5" class="node">
<title>FormalAlphabet</title>
<ellipse fill="none" stroke="black" cx="328.34" cy="-234" rx="51.19" ry="18"/>
<text text-anchor="middle" x="328.34" y="-230.3" font-family="Times New Roman,serif" font-size="14.00">Alphabet Σ</text>
</g>
<!-- TextualGlyph&#45;&gt;FormalAlphabet -->
<g id="edge3" class="edge">
<title>TextualGlyph&#45;&gt;FormalAlphabet</title>
<path fill="none" stroke="black" d="M227.33,-289.81C246.57,-279.37 272.26,-265.43 292.92,-254.22"/>
<polygon fill="black" stroke="black" points="294.6,-257.29 301.72,-249.44 291.27,-251.13 294.6,-257.29"/>
</g>
<!-- PhysicalNotation -->
<g id="node9" class="node">
<title>PhysicalNotation</title>
<ellipse fill="none" stroke="black" cx="129.34" cy="-234" rx="129.18" ry="18"/>
<text text-anchor="middle" x="129.34" y="-230.3" font-family="Times New Roman,serif" font-size="14.00">non&#45;formalized physical notation</text>
</g>
<!-- TextualGlyph&#45;&gt;PhysicalNotation -->
<g id="edge5" class="edge">
<title>TextualGlyph&#45;&gt;PhysicalNotation</title>
<path fill="none" stroke="black" d="M182.75,-288.41C173.99,-279.65 163.07,-268.73 153.4,-259.06"/>
<polygon fill="black" stroke="black" points="155.84,-256.55 146.29,-251.96 150.89,-261.5 155.84,-256.55"/>
</g>
<!-- FiniteSequence -->
<g id="node3" class="node">
<title>FiniteSequence</title>
<ellipse fill="none" stroke="black" cx="469.34" cy="-234" rx="72.29" ry="18"/>
<text text-anchor="middle" x="469.34" y="-230.3" font-family="Times New Roman,serif" font-size="14.00">Finite Sequences</text>
</g>
<!-- FormalWord -->
<g id="node6" class="node">
<title>FormalWord</title>
<ellipse fill="none" stroke="black" cx="345.34" cy="-162" rx="32.49" ry="18"/>
<text text-anchor="middle" x="345.34" y="-158.3" font-family="Times New Roman,serif" font-size="14.00">Word</text>
</g>
<!-- FiniteSequence&#45;&gt;FormalWord -->
<g id="edge6" class="edge">
<title>FiniteSequence&#45;&gt;FormalWord</title>
<path fill="none" stroke="black" d="M441.51,-217.29C422.07,-206.31 396.1,-191.66 376.05,-180.34"/>
<polygon fill="black" stroke="black" points="377.73,-177.27 367.3,-175.4 374.29,-183.36 377.73,-177.27"/>
</g>
<!-- Notation_FiniteSequence -->
<g id="node11" class="node">
<title>Notation_FiniteSequence</title>
<ellipse fill="none" stroke="black" cx="514.34" cy="-162" rx="118.88" ry="18"/>
<text text-anchor="middle" x="514.34" y="-158.3" font-family="Times New Roman,serif" font-size="14.00">Notation for Finite Sequences</text>
</g>
<!-- FiniteSequence&#45;&gt;Notation_FiniteSequence -->
<g id="edge11" class="edge">
<title>FiniteSequence&#45;&gt;Notation_FiniteSequence</title>
<path fill="none" stroke="black" d="M480.23,-216.05C485.46,-207.92 491.84,-198 497.66,-188.94"/>
<polygon fill="black" stroke="black" points="500.77,-190.58 503.23,-180.28 494.88,-186.79 500.77,-190.58"/>
</g>
<!-- FormalLanguage -->
<g id="node4" class="node">
<title>FormalLanguage</title>
<ellipse fill="none" stroke="black" cx="377.34" cy="-90" rx="77.19" ry="18"/>
<text text-anchor="middle" x="377.34" y="-86.3" font-family="Times New Roman,serif" font-size="14.00">Formal Languages</text>
</g>
<!-- Notation -->
<g id="node7" class="node">
<title>Notation</title>
<ellipse fill="none" stroke="black" cx="429.34" cy="-18" rx="137.28" ry="18"/>
<text text-anchor="middle" x="429.34" y="-14.3" font-family="Times New Roman,serif" font-size="14.00">(mathematically modeled) Notation</text>
</g>
<!-- FormalLanguage&#45;&gt;Notation -->
<g id="edge9" class="edge">
<title>FormalLanguage&#45;&gt;Notation</title>
<path fill="none" stroke="black" d="M389.93,-72.05C396.09,-63.75 403.65,-53.58 410.49,-44.38"/>
<polygon fill="black" stroke="black" points="413.35,-46.39 416.51,-36.28 407.73,-42.22 413.35,-46.39"/>
</g>
<!-- FormalAlphabet&#45;&gt;FormalWord -->
<g id="edge7" class="edge">
<title>FormalAlphabet&#45;&gt;FormalWord</title>
<path fill="none" stroke="black" d="M332.45,-216.05C334.35,-208.26 336.64,-198.82 338.76,-190.08"/>
<polygon fill="black" stroke="black" points="342.18,-190.82 341.14,-180.28 335.38,-189.17 342.18,-190.82"/>
</g>
<!-- FormalWord&#45;&gt;FormalLanguage -->
<g id="edge8" class="edge">
<title>FormalWord&#45;&gt;FormalLanguage</title>
<path fill="none" stroke="black" d="M352.92,-144.41C356.65,-136.25 361.24,-126.22 365.42,-117.07"/>
<polygon fill="black" stroke="black" points="368.61,-118.51 369.59,-107.96 362.25,-115.6 368.61,-118.51"/>
</g>
<!-- Notation&#45;&gt;Notation_FiniteSequence -->
<g id="edge12" class="edge">
<title>Notation&#45;&gt;Notation_FiniteSequence</title>
<path fill="none" stroke="black" d="M440.58,-36.05C447.31,-46.37 455.97,-59.85 463.34,-72 475.97,-92.81 489.65,-116.77 499.66,-134.58"/>
<polygon fill="black" stroke="black" points="496.87,-136.77 504.81,-143.79 502.98,-133.35 496.87,-136.77"/>
</g>
<!-- SetTheoryLambdaCalculus -->
<g id="node8" class="node">
<title>SetTheoryLambdaCalculus</title>
<ellipse fill="none" stroke="black" cx="433.34" cy="-306" rx="116.98" ry="18"/>
<text text-anchor="middle" x="433.34" y="-302.3" font-family="Times New Roman,serif" font-size="14.00">set theory or lambda calculus</text>
</g>
<!-- SetTheoryLambdaCalculus&#45;&gt;FiniteSequence -->
<g id="edge10" class="edge">
<title>SetTheoryLambdaCalculus&#45;&gt;FiniteSequence</title>
<path fill="none" stroke="black" d="M442.24,-287.7C446.34,-279.73 451.29,-270.1 455.83,-261.26"/>
<polygon fill="black" stroke="black" points="459.08,-262.6 460.54,-252.1 452.86,-259.4 459.08,-262.6"/>
</g>
<!-- SetTheoryLambdaCalculus&#45;&gt;FormalAlphabet -->
<g id="edge4" class="edge">
<title>SetTheoryLambdaCalculus&#45;&gt;FormalAlphabet</title>
<path fill="none" stroke="black" d="M408.45,-288.41C393.96,-278.75 375.53,-266.46 360,-256.11"/>
<polygon fill="black" stroke="black" points="361.51,-252.91 351.25,-250.27 357.63,-258.73 361.51,-252.91"/>
</g>
<!-- Logic -->
<g id="node10" class="node">
<title>Logic</title>
<ellipse fill="none" stroke="black" cx="433.34" cy="-378" rx="28.7" ry="18"/>
<text text-anchor="middle" x="433.34" y="-374.3" font-family="Times New Roman,serif" font-size="14.00">logic</text>
</g>
<!-- Logic&#45;&gt;SetTheoryLambdaCalculus -->
<g id="edge1" class="edge">
<title>Logic&#45;&gt;SetTheoryLambdaCalculus</title>
<path fill="none" stroke="black" d="M433.34,-359.7C433.34,-351.98 433.34,-342.71 433.34,-334.11"/>
<polygon fill="black" stroke="black" points="436.84,-334.1 433.34,-324.1 429.84,-334.1 436.84,-334.1"/>
</g>
</g>
</svg>
