<?xml version="1.0" encoding="UTF-8" standalone="no"?>
<!DOCTYPE svg PUBLIC "-//W3C//DTD SVG 1.1//EN"
 "http://www.w3.org/Graphics/SVG/1.1/DTD/svg11.dtd">
<!-- Generated by graphviz version 2.49.3 (20211023.0002)
 -->
<!-- Pages: 1 -->
<svg width="612pt" height="620pt"
 viewBox="0.00 0.00 612.18 620.00" xmlns="http://www.w3.org/2000/svg" xmlns:xlink="http://www.w3.org/1999/xlink">
<g id="graph0" class="graph" transform="scale(1 1) rotate(0) translate(4 616)">
<polygon fill="white" stroke="transparent" points="-4,4 -4,-616 608.18,-616 608.18,4 -4,4"/>
<g id="clust4" class="cluster">
<title>clusterNotationFiniteSequence</title>
<polygon fill="none" stroke="black" points="282.18,-136 282.18,-332 596.18,-332 596.18,-136 282.18,-136"/>
</g>
<!-- Ur -->
<g id="node1" class="node">
<title>Ur</title>
<ellipse fill="none" stroke="black" cx="88.18" cy="-594" rx="70.69" ry="18"/>
<text text-anchor="start" x="41.68" y="-591.3" font-family="Times New Roman,serif" font-weight="bold" font-size="14.00">Ur</text>
<text text-anchor="start" x="57.68" y="-591.3" font-family="Times New Roman,serif" font-size="14.00"> (ur&#45;elements)</text>
</g>
<!-- TextualGlyph -->
<g id="node2" class="node">
<title>TextualGlyph</title>
<ellipse fill="none" stroke="black" cx="88.18" cy="-522" rx="63.89" ry="18"/>
<text text-anchor="middle" x="88.18" y="-518.3" font-family="Times New Roman,serif" font-size="14.00">Textual glyphs</text>
</g>
<!-- Ur&#45;&gt;TextualGlyph -->
<g id="edge3" class="edge">
<title>Ur&#45;&gt;TextualGlyph</title>
<path fill="none" stroke="black" d="M88.18,-575.7C88.18,-567.98 88.18,-558.71 88.18,-550.11"/>
<polygon fill="black" stroke="black" points="91.68,-550.1 88.18,-540.1 84.68,-550.1 91.68,-550.1"/>
</g>
<!-- FormalAlphabet -->
<g id="node5" class="node">
<title>FormalAlphabet</title>
<ellipse fill="none" stroke="black" cx="155.18" cy="-234" rx="51.19" ry="18"/>
<text text-anchor="middle" x="155.18" y="-230.3" font-family="Times New Roman,serif" font-size="14.00">Alphabet Σ</text>
</g>
<!-- TextualGlyph&#45;&gt;FormalAlphabet -->
<g id="edge4" class="edge">
<title>TextualGlyph&#45;&gt;FormalAlphabet</title>
<path fill="none" stroke="black" d="M62.54,-505.47C49.97,-496.31 36.08,-483.47 29.18,-468 -3.4,-394.94 -15.08,-354.64 29.18,-288 44.78,-264.51 73.05,-251.41 98.86,-244.11"/>
<polygon fill="black" stroke="black" points="99.79,-247.49 108.6,-241.59 98.04,-240.71 99.79,-247.49"/>
</g>
<!-- PhysicalNotation -->
<g id="node9" class="node">
<title>PhysicalNotation</title>
<ellipse fill="none" stroke="black" cx="167.18" cy="-450" rx="129.18" ry="18"/>
<text text-anchor="middle" x="167.18" y="-446.3" font-family="Times New Roman,serif" font-size="14.00">non&#45;formalized physical notation</text>
</g>
<!-- TextualGlyph&#45;&gt;PhysicalNotation -->
<g id="edge6" class="edge">
<title>TextualGlyph&#45;&gt;PhysicalNotation</title>
<path fill="none" stroke="black" d="M106.9,-504.41C116.89,-495.56 129.35,-484.52 140.35,-474.77"/>
<polygon fill="black" stroke="black" points="142.88,-477.21 148.05,-467.96 138.24,-471.97 142.88,-477.21"/>
</g>
<!-- FiniteSequence -->
<g id="node3" class="node">
<title>FiniteSequence</title>
<ellipse fill="none" stroke="black" cx="385.18" cy="-234" rx="72.29" ry="18"/>
<text text-anchor="middle" x="385.18" y="-230.3" font-family="Times New Roman,serif" font-size="14.00">Finite Sequences</text>
</g>
<!-- FormalWord -->
<g id="node6" class="node">
<title>FormalWord</title>
<ellipse fill="none" stroke="black" cx="240.18" cy="-162" rx="32.49" ry="18"/>
<text text-anchor="middle" x="240.18" y="-158.3" font-family="Times New Roman,serif" font-size="14.00">Word</text>
</g>
<!-- FiniteSequence&#45;&gt;FormalWord -->
<g id="edge7" class="edge">
<title>FiniteSequence&#45;&gt;FormalWord</title>
<path fill="none" stroke="black" d="M353.36,-217.64C329.52,-206.13 296.99,-190.42 272.93,-178.81"/>
<polygon fill="black" stroke="black" points="274.36,-175.61 263.83,-174.42 271.31,-181.92 274.36,-175.61"/>
</g>
<!-- Notation_FiniteSequence -->
<g id="node12" class="node">
<title>Notation_FiniteSequence</title>
<ellipse fill="none" stroke="black" cx="409.18" cy="-162" rx="118.88" ry="18"/>
<text text-anchor="middle" x="409.18" y="-158.3" font-family="Times New Roman,serif" font-size="14.00">Notation for Finite Sequences</text>
</g>
<!-- FiniteSequence&#45;&gt;Notation_FiniteSequence -->
<g id="edge14" class="edge">
<title>FiniteSequence&#45;&gt;Notation_FiniteSequence</title>
<path fill="none" stroke="black" d="M390.99,-216.05C393.69,-208.18 396.97,-198.62 400,-189.79"/>
<polygon fill="black" stroke="black" points="403.33,-190.87 403.26,-180.28 396.7,-188.6 403.33,-190.87"/>
</g>
<!-- FormalLanguage -->
<g id="node4" class="node">
<title>FormalLanguage</title>
<ellipse fill="none" stroke="black" cx="272.18" cy="-90" rx="77.19" ry="18"/>
<text text-anchor="middle" x="272.18" y="-86.3" font-family="Times New Roman,serif" font-size="14.00">Formal Languages</text>
</g>
<!-- Notation -->
<g id="node7" class="node">
<title>Notation</title>
<ellipse fill="none" stroke="black" cx="324.18" cy="-18" rx="137.28" ry="18"/>
<text text-anchor="middle" x="324.18" y="-14.3" font-family="Times New Roman,serif" font-size="14.00">(mathematically modeled) Notation</text>
</g>
<!-- FormalLanguage&#45;&gt;Notation -->
<g id="edge10" class="edge">
<title>FormalLanguage&#45;&gt;Notation</title>
<path fill="none" stroke="black" d="M284.77,-72.05C290.94,-63.75 298.49,-53.58 305.33,-44.38"/>
<polygon fill="black" stroke="black" points="308.2,-46.39 311.35,-36.28 302.58,-42.22 308.2,-46.39"/>
</g>
<!-- FormalAlphabet&#45;&gt;FormalWord -->
<g id="edge8" class="edge">
<title>FormalAlphabet&#45;&gt;FormalWord</title>
<path fill="none" stroke="black" d="M174.47,-217.12C186.36,-207.32 201.75,-194.65 214.65,-184.02"/>
<polygon fill="black" stroke="black" points="217.21,-186.45 222.71,-177.39 212.76,-181.05 217.21,-186.45"/>
</g>
<!-- FormalWord&#45;&gt;FormalLanguage -->
<g id="edge9" class="edge">
<title>FormalWord&#45;&gt;FormalLanguage</title>
<path fill="none" stroke="black" d="M247.77,-144.41C251.5,-136.25 256.08,-126.22 260.27,-117.07"/>
<polygon fill="black" stroke="black" points="263.46,-118.51 264.43,-107.96 257.09,-115.6 263.46,-118.51"/>
</g>
<!-- Notation&#45;&gt;Notation_FiniteSequence -->
<g id="edge15" class="edge">
<title>Notation&#45;&gt;Notation_FiniteSequence</title>
<path fill="none" stroke="black" d="M335.43,-36.05C342.16,-46.37 350.81,-59.85 358.18,-72 370.81,-92.81 384.49,-116.77 394.5,-134.58"/>
<polygon fill="black" stroke="black" points="391.72,-136.77 399.66,-143.79 397.82,-133.35 391.72,-136.77"/>
</g>
<!-- SetTheoryLambdaCalculus -->
<g id="node8" class="node">
<title>SetTheoryLambdaCalculus</title>
<ellipse fill="none" stroke="black" cx="155.18" cy="-306" rx="116.98" ry="18"/>
<text text-anchor="middle" x="155.18" y="-302.3" font-family="Times New Roman,serif" font-size="14.00">set theory or lambda calculus</text>
</g>
<!-- SetTheoryLambdaCalculus&#45;&gt;FiniteSequence -->
<g id="edge11" class="edge">
<title>SetTheoryLambdaCalculus&#45;&gt;FiniteSequence</title>
<path fill="none" stroke="black" d="M205.37,-289.72C242.62,-278.39 293.34,-262.95 331.42,-251.36"/>
<polygon fill="black" stroke="black" points="332.76,-254.61 341.3,-248.35 330.72,-247.92 332.76,-254.61"/>
</g>
<!-- SetTheoryLambdaCalculus&#45;&gt;FormalAlphabet -->
<g id="edge5" class="edge">
<title>SetTheoryLambdaCalculus&#45;&gt;FormalAlphabet</title>
<path fill="none" stroke="black" d="M155.18,-287.7C155.18,-279.98 155.18,-270.71 155.18,-262.11"/>
<polygon fill="black" stroke="black" points="158.68,-262.1 155.18,-252.1 151.68,-262.1 158.68,-262.1"/>
</g>
<!-- Logic -->
<g id="node10" class="node">
<title>Logic</title>
<ellipse fill="none" stroke="black" cx="161.18" cy="-378" rx="28.7" ry="18"/>
<text text-anchor="middle" x="161.18" y="-374.3" font-family="Times New Roman,serif" font-size="14.00">logic</text>
</g>
<!-- PhysicalNotation&#45;&gt;Logic -->
<g id="edge1" class="edge">
<title>PhysicalNotation&#45;&gt;Logic</title>
<path fill="none" stroke="black" d="M165.7,-431.7C165.04,-423.98 164.24,-414.71 163.51,-406.11"/>
<polygon fill="black" stroke="black" points="166.99,-405.77 162.65,-396.1 160.01,-406.37 166.99,-405.77"/>
</g>
<!-- PhysicalNotation_FiniteSequence -->
<g id="node11" class="node">
<title>PhysicalNotation_FiniteSequence</title>
<ellipse fill="none" stroke="black" cx="439.18" cy="-306" rx="149.47" ry="18"/>
<text text-anchor="middle" x="439.18" y="-302.3" font-family="Times New Roman,serif" font-size="14.00">Physical notation for Finite Sequences</text>
</g>
<!-- PhysicalNotation&#45;&gt;PhysicalNotation_FiniteSequence -->
<g id="edge12" class="edge">
<title>PhysicalNotation&#45;&gt;PhysicalNotation_FiniteSequence</title>
<path fill="none" stroke="black" d="M198.92,-432.43C248.33,-406.64 343.63,-356.88 398.19,-328.4"/>
<polygon fill="black" stroke="black" points="399.98,-331.41 407.23,-323.68 396.74,-325.21 399.98,-331.41"/>
</g>
<!-- Logic&#45;&gt;SetTheoryLambdaCalculus -->
<g id="edge2" class="edge">
<title>Logic&#45;&gt;SetTheoryLambdaCalculus</title>
<path fill="none" stroke="black" d="M159.7,-359.7C159.04,-351.98 158.24,-342.71 157.51,-334.11"/>
<polygon fill="black" stroke="black" points="160.99,-333.77 156.65,-324.1 154.01,-334.37 160.99,-333.77"/>
</g>
<!-- PhysicalNotation_FiniteSequence&#45;&gt;FiniteSequence -->
<g id="edge13" class="edge">
<title>PhysicalNotation_FiniteSequence&#45;&gt;FiniteSequence</title>
<path fill="none" stroke="black" d="M426.11,-288.05C419.61,-279.63 411.63,-269.28 404.44,-259.97"/>
<polygon fill="black" stroke="black" points="407.01,-257.57 398.13,-251.79 401.47,-261.84 407.01,-257.57"/>
</g>
</g>
</svg>
