<?xml version="1.0" encoding="UTF-8" standalone="no"?>
<!DOCTYPE svg PUBLIC "-//W3C//DTD SVG 1.1//EN"
 "http://www.w3.org/Graphics/SVG/1.1/DTD/svg11.dtd">
<!-- Generated by graphviz version 2.49.3 (20211023.0002)
 -->
<!-- Pages: 1 -->
<svg width="1773pt" height="404pt"
 viewBox="0.00 0.00 1772.88 404.00" xmlns="http://www.w3.org/2000/svg" xmlns:xlink="http://www.w3.org/1999/xlink">
<g id="graph0" class="graph" transform="scale(1 1) rotate(0) translate(4 400)">
<polygon fill="white" stroke="transparent" points="-4,4 -4,-400 1768.88,-400 1768.88,4 -4,4"/>
<!-- FiniteSequence -->
<g id="node1" class="node">
<title>FiniteSequence</title>
<ellipse fill="none" stroke="black" cx="1451.58" cy="-378" rx="72.29" ry="18"/>
<text text-anchor="middle" x="1451.58" y="-374.3" font-family="Times New Roman,serif" font-size="14.00">Finite Sequences</text>
</g>
<!-- FormalWord -->
<g id="node4" class="node">
<title>FormalWord</title>
<ellipse fill="none" stroke="black" cx="908.58" cy="-306" rx="32.49" ry="18"/>
<text text-anchor="middle" x="908.58" y="-302.3" font-family="Times New Roman,serif" font-size="14.00">Word</text>
</g>
<!-- FiniteSequence&#45;&gt;FormalWord -->
<g id="edge1" class="edge">
<title>FiniteSequence&#45;&gt;FormalWord</title>
<path fill="none" stroke="black" d="M1389.03,-368.94C1276.94,-354.49 1044.76,-324.55 950.11,-312.35"/>
<polygon fill="black" stroke="black" points="950.42,-308.86 940.06,-311.06 949.53,-315.81 950.42,-308.86"/>
</g>
<!-- ReversalFiniteSequence -->
<g id="node15" class="node">
<title>ReversalFiniteSequence</title>
<ellipse fill="none" stroke="black" cx="1608.58" cy="-306" rx="112.38" ry="18"/>
<text text-anchor="middle" x="1608.58" y="-302.3" font-family="Times New Roman,serif" font-size="14.00">Reversal of finite sequences</text>
</g>
<!-- FiniteSequence&#45;&gt;ReversalFiniteSequence -->
<g id="edge15" class="edge">
<title>FiniteSequence&#45;&gt;ReversalFiniteSequence</title>
<path fill="none" stroke="black" d="M1485.27,-361.98C1508.04,-351.83 1538.37,-338.31 1563.26,-327.21"/>
<polygon fill="black" stroke="black" points="1564.79,-330.36 1572.5,-323.09 1561.94,-323.96 1564.79,-330.36"/>
</g>
<!-- ConcatenationFiniteSequence -->
<g id="node16" class="node">
<title>ConcatenationFiniteSequence</title>
<ellipse fill="none" stroke="black" cx="1159.58" cy="-234" rx="133.48" ry="18"/>
<text text-anchor="middle" x="1159.58" y="-230.3" font-family="Times New Roman,serif" font-size="14.00">Concatenation of finite sequences</text>
</g>
<!-- FiniteSequence&#45;&gt;ConcatenationFiniteSequence -->
<g id="edge16" class="edge">
<title>FiniteSequence&#45;&gt;ConcatenationFiniteSequence</title>
<path fill="none" stroke="black" d="M1411.06,-362.98C1383.67,-353.07 1346.92,-338.94 1315.58,-324 1272.81,-303.6 1225.83,-276.05 1194.73,-257.03"/>
<polygon fill="black" stroke="black" points="1196.35,-253.92 1186,-251.66 1192.68,-259.88 1196.35,-253.92"/>
</g>
<!-- SumOfFiniteSequence -->
<g id="node27" class="node">
<title>SumOfFiniteSequence</title>
<ellipse fill="none" stroke="black" cx="1672.58" cy="-90" rx="92.08" ry="18"/>
<text text-anchor="middle" x="1672.58" y="-86.3" font-family="Times New Roman,serif" font-size="14.00">sum of finite sequence</text>
</g>
<!-- FiniteSequence&#45;&gt;SumOfFiniteSequence -->
<g id="edge30" class="edge">
<title>FiniteSequence&#45;&gt;SumOfFiniteSequence</title>
<path fill="none" stroke="black" d="M1521.53,-373.56C1595.07,-368.3 1703.67,-355.33 1729.58,-324 1780.46,-262.51 1723.22,-162.5 1691.22,-116.11"/>
<polygon fill="black" stroke="black" points="1694.01,-113.99 1685.39,-107.83 1688.29,-118.02 1694.01,-113.99"/>
</g>
<!-- FormalLanguage -->
<g id="node2" class="node">
<title>FormalLanguage</title>
<ellipse fill="none" stroke="black" cx="930.58" cy="-234" rx="77.19" ry="18"/>
<text text-anchor="middle" x="930.58" y="-230.3" font-family="Times New Roman,serif" font-size="14.00">Formal Languages</text>
</g>
<!-- KleeneStar -->
<g id="node17" class="node">
<title>KleeneStar</title>
<ellipse fill="none" stroke="black" cx="1057.58" cy="-162" rx="122.38" ry="18"/>
<text text-anchor="middle" x="1057.58" y="-158.3" font-family="Times New Roman,serif" font-size="14.00">Kleene Star of formal language</text>
</g>
<!-- FormalLanguage&#45;&gt;KleeneStar -->
<g id="edge17" class="edge">
<title>FormalLanguage&#45;&gt;KleeneStar</title>
<path fill="none" stroke="black" d="M959.4,-217.12C976.97,-207.44 999.64,-194.94 1018.77,-184.4"/>
<polygon fill="black" stroke="black" points="1020.49,-187.44 1027.56,-179.55 1017.11,-181.31 1020.49,-187.44"/>
</g>
<!-- FormalAlphabet -->
<g id="node3" class="node">
<title>FormalAlphabet</title>
<ellipse fill="none" stroke="black" cx="897.58" cy="-378" rx="51.19" ry="18"/>
<text text-anchor="middle" x="897.58" y="-374.3" font-family="Times New Roman,serif" font-size="14.00">Alphabet Σ</text>
</g>
<!-- FormalAlphabet&#45;&gt;FormalWord -->
<g id="edge2" class="edge">
<title>FormalAlphabet&#45;&gt;FormalWord</title>
<path fill="none" stroke="black" d="M900.3,-359.7C901.52,-351.98 902.97,-342.71 904.32,-334.11"/>
<polygon fill="black" stroke="black" points="907.8,-334.53 905.9,-324.1 900.89,-333.44 907.8,-334.53"/>
</g>
<!-- FormalAlphabetSet -->
<g id="node9" class="node">
<title>FormalAlphabetSet</title>
<ellipse fill="none" stroke="black" cx="396.58" cy="-306" rx="43.59" ry="18"/>
<text text-anchor="middle" x="396.58" y="-302.3" font-family="Times New Roman,serif" font-size="14.00">Σ is a set</text>
</g>
<!-- FormalAlphabet&#45;&gt;FormalAlphabetSet -->
<g id="edge7" class="edge">
<title>FormalAlphabet&#45;&gt;FormalAlphabetSet</title>
<path fill="none" stroke="black" d="M860.7,-365.46C853.11,-363.4 845.13,-361.45 837.58,-360 684,-330.57 642.35,-346.38 487.58,-324 473.77,-322 458.85,-319.4 445.17,-316.84"/>
<polygon fill="black" stroke="black" points="445.47,-313.33 434.99,-314.9 444.16,-320.21 445.47,-313.33"/>
</g>
<!-- ProductionRules -->
<g id="node19" class="node">
<title>ProductionRules</title>
<ellipse fill="none" stroke="black" cx="737.58" cy="-306" rx="70.69" ry="18"/>
<text text-anchor="middle" x="737.58" y="-302.3" font-family="Times New Roman,serif" font-size="14.00">Production rules</text>
</g>
<!-- FormalAlphabet&#45;&gt;ProductionRules -->
<g id="edge19" class="edge">
<title>FormalAlphabet&#45;&gt;ProductionRules</title>
<path fill="none" stroke="black" d="M866.74,-363.5C842.37,-352.84 808.06,-337.83 780.93,-325.96"/>
<polygon fill="black" stroke="black" points="782.23,-322.71 771.66,-321.91 779.42,-329.12 782.23,-322.71"/>
</g>
<!-- FormalWord&#45;&gt;FormalLanguage -->
<g id="edge3" class="edge">
<title>FormalWord&#45;&gt;FormalLanguage</title>
<path fill="none" stroke="black" d="M913.91,-288.05C916.36,-280.26 919.33,-270.82 922.07,-262.08"/>
<polygon fill="black" stroke="black" points="925.5,-262.86 925.16,-252.28 918.82,-260.77 925.5,-262.86"/>
</g>
<!-- AllFormalWords -->
<g id="node6" class="node">
<title>AllFormalWords</title>
<ellipse fill="none" stroke="black" cx="277.58" cy="-234" rx="84.49" ry="18"/>
<text text-anchor="start" x="220.58" y="-231.3" font-family="Times New Roman,serif" font-size="14.00">All formal words Σ</text>
<text text-anchor="start" x="327.58" y="-231.3" font-family="Times New Roman,serif" baseline-shift="super" font-size="14.00">*</text>
</g>
<!-- FormalWord&#45;&gt;AllFormalWords -->
<g id="edge4" class="edge">
<title>FormalWord&#45;&gt;AllFormalWords</title>
<path fill="none" stroke="black" d="M878.77,-298.75C861.06,-295.21 838.11,-290.92 817.58,-288 806.47,-286.42 512.13,-257.77 362.8,-243.27"/>
<polygon fill="black" stroke="black" points="363.03,-239.77 352.74,-242.29 362.35,-246.74 363.03,-239.77"/>
</g>
<!-- ConstructiveRationale -->
<g id="node5" class="node">
<title>ConstructiveRationale</title>
<ellipse fill="none" stroke="black" cx="171.58" cy="-378" rx="171.67" ry="18"/>
<text text-anchor="middle" x="171.58" y="-374.3" font-family="Times New Roman,serif" font-size="14.00">Brouwer&#45;Heyting&#45;Kolmogorov interpretation</text>
</g>
<!-- ConstructiveRationale&#45;&gt;FormalAlphabetSet -->
<g id="edge8" class="edge">
<title>ConstructiveRationale&#45;&gt;FormalAlphabetSet</title>
<path fill="none" stroke="black" d="M225.43,-360.79C259.62,-350.42 304.75,-336.61 344.58,-324 347.66,-323.03 350.84,-322.01 354.04,-320.98"/>
<polygon fill="black" stroke="black" points="355.17,-324.29 363.6,-317.88 353.01,-317.63 355.17,-324.29"/>
</g>
<!-- AllFormalWordsSet -->
<g id="node10" class="node">
<title>AllFormalWordsSet</title>
<ellipse fill="none" stroke="black" cx="185.58" cy="-162" rx="48.99" ry="18"/>
<text text-anchor="start" x="156.08" y="-159.3" font-family="Times New Roman,serif" font-size="14.00">Σ</text>
<text text-anchor="start" x="165.08" y="-159.3" font-family="Times New Roman,serif" baseline-shift="super" font-size="14.00">*</text>
<text text-anchor="start" x="172.08" y="-159.3" font-family="Times New Roman,serif" font-size="14.00"> is a set</text>
</g>
<!-- ConstructiveRationale&#45;&gt;AllFormalWordsSet -->
<g id="edge9" class="edge">
<title>ConstructiveRationale&#45;&gt;AllFormalWordsSet</title>
<path fill="none" stroke="black" d="M144.09,-360.11C132.03,-351.05 119.15,-338.71 112.58,-324 106.07,-309.39 108.41,-303.44 112.58,-288 122.88,-249.97 147.93,-211.65 165.82,-187.65"/>
<polygon fill="black" stroke="black" points="168.76,-189.56 172.04,-179.48 163.19,-185.32 168.76,-189.56"/>
</g>
<!-- AllFormalWords&#45;&gt;AllFormalWordsSet -->
<g id="edge10" class="edge">
<title>AllFormalWords&#45;&gt;AllFormalWordsSet</title>
<path fill="none" stroke="black" d="M255.78,-216.41C243.29,-206.9 227.46,-194.86 214,-184.62"/>
<polygon fill="black" stroke="black" points="216.05,-181.78 205.97,-178.51 211.81,-187.35 216.05,-181.78"/>
</g>
<!-- AxiomOfAbsoluteUnion -->
<g id="node7" class="node">
<title>AxiomOfAbsoluteUnion</title>
<ellipse fill="none" stroke="black" cx="228.58" cy="-306" rx="106.68" ry="18"/>
<text text-anchor="middle" x="228.58" y="-302.3" font-family="Times New Roman,serif" font-size="14.00">Axiom of (absolute) union</text>
</g>
<!-- AxiomOfAbsoluteUnion&#45;&gt;AllFormalWords -->
<g id="edge5" class="edge">
<title>AxiomOfAbsoluteUnion&#45;&gt;AllFormalWords</title>
<path fill="none" stroke="black" d="M240.45,-288.05C246.2,-279.84 253.23,-269.79 259.62,-260.66"/>
<polygon fill="black" stroke="black" points="262.62,-262.47 265.49,-252.28 256.89,-258.46 262.62,-262.47"/>
</g>
<!-- FunctionsAndRelations -->
<g id="node8" class="node">
<title>FunctionsAndRelations</title>
<ellipse fill="none" stroke="black" cx="533.58" cy="-378" rx="94.78" ry="18"/>
<text text-anchor="middle" x="533.58" y="-374.3" font-family="Times New Roman,serif" font-size="14.00">Functions and relations</text>
</g>
<!-- FunctionsAndRelations&#45;&gt;AllFormalWords -->
<g id="edge6" class="edge">
<title>FunctionsAndRelations&#45;&gt;AllFormalWords</title>
<path fill="none" stroke="black" d="M518.28,-359.87C496.36,-335.47 457.75,-293.08 449.58,-288 419.41,-269.23 382.1,-256.67 349.95,-248.52"/>
<polygon fill="black" stroke="black" points="350.69,-245.1 340.15,-246.13 349.03,-251.9 350.69,-245.1"/>
</g>
<!-- FunctionsAndRelations&#45;&gt;ProductionRules -->
<g id="edge20" class="edge">
<title>FunctionsAndRelations&#45;&gt;ProductionRules</title>
<path fill="none" stroke="black" d="M577.35,-361.98C609.63,-350.9 653.63,-335.81 687.35,-324.24"/>
<polygon fill="black" stroke="black" points="688.69,-327.48 697.02,-320.92 686.42,-320.86 688.69,-327.48"/>
</g>
<!-- ClosureAxiom -->
<g id="node23" class="node">
<title>ClosureAxiom</title>
<ellipse fill="none" stroke="black" cx="572.58" cy="-306" rx="76.09" ry="18"/>
<text text-anchor="middle" x="572.58" y="-302.3" font-family="Times New Roman,serif" font-size="14.00">Axiom of Closure</text>
</g>
<!-- FunctionsAndRelations&#45;&gt;ClosureAxiom -->
<g id="edge26" class="edge">
<title>FunctionsAndRelations&#45;&gt;ClosureAxiom</title>
<path fill="none" stroke="black" d="M543.03,-360.05C547.51,-352.01 552.97,-342.2 557.97,-333.23"/>
<polygon fill="black" stroke="black" points="561.15,-334.71 562.96,-324.28 555.04,-331.31 561.15,-334.71"/>
</g>
<!-- AxiomOfReplacement -->
<g id="node11" class="node">
<title>AxiomOfReplacement</title>
<ellipse fill="none" stroke="black" cx="185.58" cy="-90" rx="129.98" ry="18"/>
<text text-anchor="middle" x="185.58" y="-86.3" font-family="Times New Roman,serif" font-size="14.00">Axiom (schema) of Replacement</text>
</g>
<!-- AllFormalWordsSet&#45;&gt;AxiomOfReplacement -->
<g id="edge11" class="edge">
<title>AllFormalWordsSet&#45;&gt;AxiomOfReplacement</title>
<path fill="none" stroke="black" d="M185.58,-143.7C185.58,-135.98 185.58,-126.71 185.58,-118.11"/>
<polygon fill="black" stroke="black" points="189.08,-118.1 185.58,-108.1 182.08,-118.1 189.08,-118.1"/>
</g>
<!-- DivisionAlgorithm -->
<g id="node12" class="node">
<title>DivisionAlgorithm</title>
<ellipse fill="silver" stroke="black" cx="1401.58" cy="-306" rx="76.89" ry="18"/>
<text text-anchor="middle" x="1401.58" y="-302.3" font-family="Times New Roman,serif" font-size="14.00">Division algorithm</text>
</g>
<!-- QuotientRemainder -->
<g id="node13" class="node">
<title>QuotientRemainder</title>
<ellipse fill="none" stroke="black" cx="1404.58" cy="-234" rx="93.68" ry="18"/>
<text text-anchor="middle" x="1404.58" y="-230.3" font-family="Times New Roman,serif" font-size="14.00">quotient and remainder</text>
</g>
<!-- DivisionAlgorithm&#45;&gt;QuotientRemainder -->
<g id="edge14" class="edge">
<title>DivisionAlgorithm&#45;&gt;QuotientRemainder</title>
<path fill="none" stroke="black" d="M1402.33,-287.7C1402.66,-279.98 1403.05,-270.71 1403.42,-262.11"/>
<polygon fill="black" stroke="black" points="1406.92,-262.25 1403.85,-252.1 1399.93,-261.95 1406.92,-262.25"/>
</g>
<!-- Numeral -->
<g id="node14" class="node">
<title>Numeral</title>
<ellipse fill="none" stroke="black" cx="1616.58" cy="-234" rx="100.98" ry="18"/>
<text text-anchor="middle" x="1616.58" y="-230.3" font-family="Times New Roman,serif" font-size="14.00">Natural number numerals</text>
</g>
<!-- DivisionAlgorithm&#45;&gt;Numeral -->
<g id="edge12" class="edge">
<title>DivisionAlgorithm&#45;&gt;Numeral</title>
<path fill="none" stroke="black" d="M1444.58,-291C1477.84,-280.17 1524.19,-265.08 1560.4,-253.29"/>
<polygon fill="black" stroke="black" points="1561.89,-256.49 1570.32,-250.06 1559.73,-249.83 1561.89,-256.49"/>
</g>
<!-- GrammarForNumerals -->
<g id="node22" class="node">
<title>GrammarForNumerals</title>
<ellipse fill="none" stroke="black" cx="1247.58" cy="-90" rx="118.08" ry="18"/>
<text text-anchor="middle" x="1247.58" y="-86.3" font-family="Times New Roman,serif" font-size="14.00">Formal grammar for numerals</text>
</g>
<!-- Numeral&#45;&gt;GrammarForNumerals -->
<g id="edge24" class="edge">
<title>Numeral&#45;&gt;GrammarForNumerals</title>
<path fill="none" stroke="black" d="M1576.04,-217.4C1508.4,-191.37 1372.68,-139.14 1298.63,-110.64"/>
<polygon fill="black" stroke="black" points="1299.63,-107.28 1289.04,-106.95 1297.12,-113.81 1299.63,-107.28"/>
</g>
<!-- ReversalFiniteSequence&#45;&gt;Numeral -->
<g id="edge13" class="edge">
<title>ReversalFiniteSequence&#45;&gt;Numeral</title>
<path fill="none" stroke="black" d="M1610.56,-287.7C1611.44,-279.98 1612.5,-270.71 1613.49,-262.11"/>
<polygon fill="black" stroke="black" points="1616.97,-262.44 1614.63,-252.1 1610.02,-261.64 1616.97,-262.44"/>
</g>
<!-- ConcatenationFiniteSequence&#45;&gt;KleeneStar -->
<g id="edge18" class="edge">
<title>ConcatenationFiniteSequence&#45;&gt;KleeneStar</title>
<path fill="none" stroke="black" d="M1135.15,-216.23C1121.75,-207.04 1104.96,-195.51 1090.42,-185.54"/>
<polygon fill="black" stroke="black" points="1092.4,-182.65 1082.17,-179.87 1088.44,-188.42 1092.4,-182.65"/>
</g>
<!-- NonTerminalSymbols -->
<g id="node18" class="node">
<title>NonTerminalSymbols</title>
<ellipse fill="none" stroke="black" cx="737.58" cy="-378" rx="90.98" ry="18"/>
<text text-anchor="middle" x="737.58" y="-374.3" font-family="Times New Roman,serif" font-size="14.00">Non&#45;terminal symbols</text>
</g>
<!-- NonTerminalSymbols&#45;&gt;ProductionRules -->
<g id="edge21" class="edge">
<title>NonTerminalSymbols&#45;&gt;ProductionRules</title>
<path fill="none" stroke="black" d="M737.58,-359.7C737.58,-351.98 737.58,-342.71 737.58,-334.11"/>
<polygon fill="black" stroke="black" points="741.08,-334.1 737.58,-324.1 734.08,-334.1 741.08,-334.1"/>
</g>
<!-- FormalGenerativeGrammar -->
<g id="node20" class="node">
<title>FormalGenerativeGrammar</title>
<ellipse fill="none" stroke="black" cx="725.58" cy="-234" rx="109.38" ry="18"/>
<text text-anchor="middle" x="725.58" y="-230.3" font-family="Times New Roman,serif" font-size="14.00">Formal generative grammar</text>
</g>
<!-- ProductionRules&#45;&gt;FormalGenerativeGrammar -->
<g id="edge22" class="edge">
<title>ProductionRules&#45;&gt;FormalGenerativeGrammar</title>
<path fill="none" stroke="black" d="M734.62,-287.7C733.3,-279.98 731.71,-270.71 730.23,-262.11"/>
<polygon fill="black" stroke="black" points="733.66,-261.37 728.52,-252.1 726.76,-262.55 733.66,-261.37"/>
</g>
<!-- KurodaNormalForm -->
<g id="node21" class="node">
<title>KurodaNormalForm</title>
<ellipse fill="none" stroke="black" cx="776.58" cy="-162" rx="89.88" ry="18"/>
<text text-anchor="middle" x="776.58" y="-158.3" font-family="Times New Roman,serif" font-size="14.00">Kuroda Normal Form</text>
</g>
<!-- FormalGenerativeGrammar&#45;&gt;KurodaNormalForm -->
<g id="edge23" class="edge">
<title>FormalGenerativeGrammar&#45;&gt;KurodaNormalForm</title>
<path fill="none" stroke="black" d="M737.93,-216.05C743.98,-207.75 751.39,-197.58 758.1,-188.38"/>
<polygon fill="black" stroke="black" points="760.94,-190.42 764,-180.28 755.28,-186.3 760.94,-190.42"/>
</g>
<!-- KurodaNormalForm&#45;&gt;GrammarForNumerals -->
<g id="edge25" class="edge">
<title>KurodaNormalForm&#45;&gt;GrammarForNumerals</title>
<path fill="none" stroke="black" d="M846.34,-150.63C928.53,-138.42 1065.36,-118.08 1156.02,-104.61"/>
<polygon fill="black" stroke="black" points="1156.64,-108.06 1166.01,-103.12 1155.61,-101.13 1156.64,-108.06"/>
</g>
<!-- NumeralsToNumbers -->
<g id="node28" class="node">
<title>NumeralsToNumbers</title>
<ellipse fill="none" stroke="black" cx="1247.58" cy="-18" rx="88.28" ry="18"/>
<text text-anchor="middle" x="1247.58" y="-14.3" font-family="Times New Roman,serif" font-size="14.00">Numerals to numbers</text>
</g>
<!-- GrammarForNumerals&#45;&gt;NumeralsToNumbers -->
<g id="edge31" class="edge">
<title>GrammarForNumerals&#45;&gt;NumeralsToNumbers</title>
<path fill="none" stroke="black" d="M1247.58,-71.7C1247.58,-63.98 1247.58,-54.71 1247.58,-46.11"/>
<polygon fill="black" stroke="black" points="1251.08,-46.1 1247.58,-36.1 1244.08,-46.1 1251.08,-46.1"/>
</g>
<!-- IdentityElement -->
<g id="node24" class="node">
<title>IdentityElement</title>
<ellipse fill="none" stroke="black" cx="530.58" cy="-234" rx="67.69" ry="18"/>
<text text-anchor="middle" x="530.58" y="-230.3" font-family="Times New Roman,serif" font-size="14.00">Identity element</text>
</g>
<!-- ClosureAxiom&#45;&gt;IdentityElement -->
<g id="edge27" class="edge">
<title>ClosureAxiom&#45;&gt;IdentityElement</title>
<path fill="none" stroke="black" d="M562.42,-288.05C557.54,-279.92 551.58,-270 546.15,-260.94"/>
<polygon fill="black" stroke="black" points="549.1,-259.05 540.95,-252.28 543.09,-262.65 549.1,-259.05"/>
</g>
<!-- RightFold -->
<g id="node25" class="node">
<title>RightFold</title>
<ellipse fill="none" stroke="black" cx="556.58" cy="-162" rx="85.29" ry="18"/>
<text text-anchor="middle" x="556.58" y="-158.3" font-family="Times New Roman,serif" font-size="14.00">Haskell/F# right fold</text>
</g>
<!-- IdentityElement&#45;&gt;RightFold -->
<g id="edge28" class="edge">
<title>IdentityElement&#45;&gt;RightFold</title>
<path fill="none" stroke="black" d="M536.88,-216.05C539.81,-208.18 543.36,-198.62 546.63,-189.79"/>
<polygon fill="black" stroke="black" points="549.97,-190.87 550.17,-180.28 543.41,-188.43 549.97,-190.87"/>
</g>
<!-- Exponentiation -->
<g id="node26" class="node">
<title>Exponentiation</title>
<ellipse fill="none" stroke="black" cx="654.58" cy="-90" rx="64.99" ry="18"/>
<text text-anchor="middle" x="654.58" y="-86.3" font-family="Times New Roman,serif" font-size="14.00">Exponentiation</text>
</g>
<!-- RightFold&#45;&gt;Exponentiation -->
<g id="edge29" class="edge">
<title>RightFold&#45;&gt;Exponentiation</title>
<path fill="none" stroke="black" d="M579.81,-144.41C592.93,-135.04 609.51,-123.2 623.71,-113.05"/>
<polygon fill="black" stroke="black" points="626.1,-115.65 632.2,-106.99 622.03,-109.95 626.1,-115.65"/>
</g>
<!-- Exponentiation&#45;&gt;NumeralsToNumbers -->
<g id="edge32" class="edge">
<title>Exponentiation&#45;&gt;NumeralsToNumbers</title>
<path fill="none" stroke="black" d="M713.07,-82.1C818.51,-69.65 1040.83,-43.41 1162.91,-29"/>
<polygon fill="black" stroke="black" points="1163.44,-32.46 1172.96,-27.81 1162.62,-25.51 1163.44,-32.46"/>
</g>
<!-- SumOfFiniteSequence&#45;&gt;NumeralsToNumbers -->
<g id="edge33" class="edge">
<title>SumOfFiniteSequence&#45;&gt;NumeralsToNumbers</title>
<path fill="none" stroke="black" d="M1604.3,-77.75C1527.68,-65.13 1403.7,-44.71 1323.93,-31.58"/>
<polygon fill="black" stroke="black" points="1324.38,-28.1 1313.95,-29.93 1323.25,-35.01 1324.38,-28.1"/>
</g>
</g>
</svg>
