<?xml version="1.0" encoding="UTF-8" standalone="no"?>
<!DOCTYPE svg PUBLIC "-//W3C//DTD SVG 1.1//EN"
 "http://www.w3.org/Graphics/SVG/1.1/DTD/svg11.dtd">
<!-- Generated by graphviz version 2.49.3 (20211023.0002)
 -->
<!-- Pages: 1 -->
<svg width="2025pt" height="476pt"
 viewBox="0.00 0.00 2024.68 476.00" xmlns="http://www.w3.org/2000/svg" xmlns:xlink="http://www.w3.org/1999/xlink">
<g id="graph0" class="graph" transform="scale(1 1) rotate(0) translate(4 472)">
<polygon fill="white" stroke="transparent" points="-4,4 -4,-472 2020.68,-472 2020.68,4 -4,4"/>
<g id="clust1" class="cluster">
<title>clusterUnrestrictedComprehension</title>
<polygon fill="none" stroke="black" points="868.64,-280 868.64,-404 1188.64,-404 1188.64,-280 868.64,-280"/>
</g>
<g id="clust12" class="cluster">
<title>clusterSetSpawn</title>
<polygon fill="none" stroke="black" points="351.64,-136 351.64,-260 1420.64,-260 1420.64,-136 351.64,-136"/>
</g>
<!-- UnrestrictedComprehension -->
<g id="node1" class="node">
<title>UnrestrictedComprehension</title>
<ellipse fill="black" stroke="black" cx="1028.64" cy="-378" rx="152.17" ry="18"/>
<text text-anchor="middle" x="1028.64" y="-374.3" font-family="Times New Roman,serif" font-size="14.00" fill="white">Axiom of Unrestricted Comprehension</text>
</g>
<!-- RussellsParadox -->
<g id="node2" class="node">
<title>RussellsParadox</title>
<ellipse fill="none" stroke="black" cx="1105.64" cy="-306" rx="75.29" ry="18"/>
<text text-anchor="middle" x="1105.64" y="-302.3" font-family="Times New Roman,serif" font-size="14.00">Russell&#39;s paradox</text>
</g>
<!-- UnrestrictedComprehension&#45;&gt;RussellsParadox -->
<g id="edge1" class="edge">
<title>UnrestrictedComprehension&#45;&gt;RussellsParadox</title>
<path fill="none" stroke="black" d="M1047.28,-360.05C1057.1,-351.13 1069.28,-340.06 1079.97,-330.34"/>
<polygon fill="black" stroke="black" points="1082.4,-332.86 1087.44,-323.55 1077.69,-327.68 1082.4,-332.86"/>
</g>
<!-- ClassExistence -->
<g id="node3" class="node">
<title>ClassExistence</title>
<ellipse fill="none" stroke="black" cx="944.64" cy="-306" rx="67.69" ry="18"/>
<text text-anchor="middle" x="944.64" y="-302.3" font-family="Times New Roman,serif" font-size="14.00">Class Existence</text>
</g>
<!-- UnrestrictedComprehension&#45;&gt;ClassExistence -->
<g id="edge2" class="edge">
<title>UnrestrictedComprehension&#45;&gt;ClassExistence</title>
<path fill="none" stroke="black" d="M1008.31,-360.05C997.42,-350.98 983.86,-339.68 972.05,-329.84"/>
<polygon fill="black" stroke="black" points="974.13,-327.02 964.21,-323.31 969.65,-332.4 974.13,-327.02"/>
</g>
<!-- SubsetAxiom -->
<g id="node6" class="node">
<title>SubsetAxiom</title>
<ellipse fill="none" stroke="black" cx="243.64" cy="-234" rx="98.28" ry="18"/>
<text text-anchor="middle" x="243.64" y="-230.3" font-family="Times New Roman,serif" font-size="14.00">Subset Axiom (schema)</text>
</g>
<!-- ClassExistence&#45;&gt;SubsetAxiom -->
<g id="edge27" class="edge">
<title>ClassExistence&#45;&gt;SubsetAxiom</title>
<path fill="none" stroke="black" d="M907.96,-290.81C895.37,-286.56 881.07,-282.39 867.64,-280 639.94,-239.46 576.75,-291.63 347.64,-260 333.65,-258.07 318.8,-255.08 304.83,-251.83"/>
<polygon fill="black" stroke="black" points="305.38,-248.36 294.84,-249.43 303.74,-255.17 305.38,-248.36"/>
</g>
<!-- AxiomOfEmptySet -->
<g id="node7" class="node">
<title>AxiomOfEmptySet</title>
<ellipse fill="none" stroke="black" cx="460.64" cy="-234" rx="100.98" ry="18"/>
<text text-anchor="middle" x="460.64" y="-230.3" font-family="Times New Roman,serif" font-size="14.00">Axiom Of Empty Set ∅</text>
</g>
<!-- ClassExistence&#45;&gt;AxiomOfEmptySet -->
<g id="edge28" class="edge">
<title>ClassExistence&#45;&gt;AxiomOfEmptySet</title>
<path fill="none" stroke="black" d="M907.53,-290.91C895.03,-286.71 880.89,-282.56 867.64,-280 737.74,-254.94 701.55,-279.16 570.64,-260 555.84,-257.83 540.08,-254.73 525.25,-251.45"/>
<polygon fill="black" stroke="black" points="525.69,-247.96 515.16,-249.16 524.14,-254.79 525.69,-247.96"/>
</g>
<!-- AxiomOfPairingWeak -->
<g id="node11" class="node">
<title>AxiomOfPairingWeak</title>
<ellipse fill="none" stroke="black" cx="866.64" cy="-234" rx="122.38" ry="18"/>
<text text-anchor="middle" x="866.64" y="-230.3" font-family="Times New Roman,serif" font-size="14.00">(weak) Axiom of Pairing {a,b}</text>
</g>
<!-- ClassExistence&#45;&gt;AxiomOfPairingWeak -->
<g id="edge29" class="edge">
<title>ClassExistence&#45;&gt;AxiomOfPairingWeak</title>
<path fill="none" stroke="black" d="M926.16,-288.41C916.3,-279.56 903.99,-268.52 893.13,-258.77"/>
<polygon fill="black" stroke="black" points="895.32,-256.03 885.54,-251.96 890.64,-261.24 895.32,-256.03"/>
</g>
<!-- AxiomOfAbsoluteUnion -->
<g id="node19" class="node">
<title>AxiomOfAbsoluteUnion</title>
<ellipse fill="none" stroke="black" cx="1113.64" cy="-234" rx="106.68" ry="18"/>
<text text-anchor="middle" x="1113.64" y="-230.3" font-family="Times New Roman,serif" font-size="14.00">Axiom of (absolute) union</text>
</g>
<!-- ClassExistence&#45;&gt;AxiomOfAbsoluteUnion -->
<g id="edge30" class="edge">
<title>ClassExistence&#45;&gt;AxiomOfAbsoluteUnion</title>
<path fill="none" stroke="black" d="M979.66,-290.5C1004.65,-280.14 1038.57,-266.1 1066.02,-254.73"/>
<polygon fill="black" stroke="black" points="1067.54,-257.89 1075.43,-250.83 1064.86,-251.42 1067.54,-257.89"/>
</g>
<!-- AxiomOfPowerSet -->
<g id="node21" class="node">
<title>AxiomOfPowerSet</title>
<ellipse fill="none" stroke="black" cx="1325.64" cy="-234" rx="87.18" ry="18"/>
<text text-anchor="middle" x="1325.64" y="-230.3" font-family="Times New Roman,serif" font-size="14.00">Axiom Of Power Set</text>
</g>
<!-- ClassExistence&#45;&gt;AxiomOfPowerSet -->
<g id="edge31" class="edge">
<title>ClassExistence&#45;&gt;AxiomOfPowerSet</title>
<path fill="none" stroke="black" d="M982.19,-291C994.6,-286.86 1008.57,-282.72 1021.64,-280 1112.57,-261.1 1138.2,-276.2 1229.64,-260 1242.09,-257.8 1255.29,-254.8 1267.78,-251.65"/>
<polygon fill="black" stroke="black" points="1268.82,-255 1277.63,-249.1 1267.07,-248.22 1268.82,-255"/>
</g>
<!-- ZF -->
<g id="node4" class="node">
<title>ZF</title>
<ellipse fill="none" stroke="black" cx="788.64" cy="-306" rx="70.39" ry="18"/>
<text text-anchor="middle" x="788.64" y="-302.3" font-family="Times New Roman,serif" font-size="14.00">Zermelo&#45;Frankel</text>
</g>
<!-- ZF&#45;&gt;SubsetAxiom -->
<g id="edge22" class="edge">
<title>ZF&#45;&gt;SubsetAxiom</title>
<path fill="none" stroke="black" d="M721.02,-300.93C634.15,-295.05 478.89,-282.37 347.64,-260 334.16,-257.7 319.84,-254.66 306.26,-251.49"/>
<polygon fill="black" stroke="black" points="307.07,-248.08 296.53,-249.17 305.45,-254.89 307.07,-248.08"/>
</g>
<!-- ZF&#45;&gt;AxiomOfEmptySet -->
<g id="edge23" class="edge">
<title>ZF&#45;&gt;AxiomOfEmptySet</title>
<path fill="none" stroke="black" d="M735.27,-294.29C691.1,-285.36 626.73,-272.16 570.64,-260 557.32,-257.11 543.11,-253.95 529.48,-250.87"/>
<polygon fill="black" stroke="black" points="530.21,-247.44 519.68,-248.65 528.66,-254.27 530.21,-247.44"/>
</g>
<!-- ZF&#45;&gt;AxiomOfPairingWeak -->
<g id="edge24" class="edge">
<title>ZF&#45;&gt;AxiomOfPairingWeak</title>
<path fill="none" stroke="black" d="M807.13,-288.41C816.99,-279.56 829.29,-268.52 840.15,-258.77"/>
<polygon fill="black" stroke="black" points="842.64,-261.24 847.75,-251.96 837.97,-256.03 842.64,-261.24"/>
</g>
<!-- ZF&#45;&gt;AxiomOfAbsoluteUnion -->
<g id="edge25" class="edge">
<title>ZF&#45;&gt;AxiomOfAbsoluteUnion</title>
<path fill="none" stroke="black" d="M827.34,-290.88C839.19,-286.93 852.35,-282.93 864.64,-280 922.8,-266.17 938.84,-270.75 997.64,-260 1012.3,-257.32 1027.93,-254.16 1042.82,-251.01"/>
<polygon fill="black" stroke="black" points="1043.94,-254.35 1052.98,-248.83 1042.47,-247.5 1043.94,-254.35"/>
</g>
<!-- ZF&#45;&gt;AxiomOfPowerSet -->
<g id="edge26" class="edge">
<title>ZF&#45;&gt;AxiomOfPowerSet</title>
<path fill="none" stroke="black" d="M825.63,-290.67C837.87,-286.52 851.68,-282.44 864.64,-280 1024.3,-249.91 1069.12,-285.04 1229.64,-260 1242.4,-258.01 1255.92,-255.04 1268.65,-251.84"/>
<polygon fill="black" stroke="black" points="1269.88,-255.14 1278.67,-249.23 1268.11,-248.36 1269.88,-255.14"/>
</g>
<!-- NBG -->
<g id="node5" class="node">
<title>NBG</title>
<ellipse fill="none" stroke="black" cx="738.64" cy="-378" rx="120.48" ry="18"/>
<text text-anchor="middle" x="738.64" y="-374.3" font-family="Times New Roman,serif" font-size="14.00">Von Neumann&#45;Bernays&#45;Gödel</text>
</g>
<!-- NBG&#45;&gt;ClassExistence -->
<g id="edge3" class="edge">
<title>NBG&#45;&gt;ClassExistence</title>
<path fill="none" stroke="black" d="M784.87,-361.29C817.59,-350.17 861.41,-335.28 894.89,-323.91"/>
<polygon fill="black" stroke="black" points="896.14,-327.18 904.48,-320.65 893.88,-320.55 896.14,-327.18"/>
</g>
<!-- Intersection -->
<g id="node8" class="node">
<title>Intersection</title>
<ellipse fill="none" stroke="black" cx="78.64" cy="-162" rx="78.79" ry="18"/>
<text text-anchor="middle" x="78.64" y="-158.3" font-family="Times New Roman,serif" font-size="14.00">Intersection A ∩ B</text>
</g>
<!-- SubsetAxiom&#45;&gt;Intersection -->
<g id="edge4" class="edge">
<title>SubsetAxiom&#45;&gt;Intersection</title>
<path fill="none" stroke="black" d="M206.61,-217.29C182.07,-206.88 149.73,-193.16 123.69,-182.11"/>
<polygon fill="black" stroke="black" points="124.99,-178.86 114.42,-178.18 122.25,-185.3 124.99,-178.86"/>
</g>
<!-- SetDifference -->
<g id="node9" class="node">
<title>SetDifference</title>
<ellipse fill="none" stroke="black" cx="254.64" cy="-162" rx="79.09" ry="18"/>
<text text-anchor="middle" x="254.64" y="-158.3" font-family="Times New Roman,serif" font-size="14.00">Set Difference A\B</text>
</g>
<!-- SubsetAxiom&#45;&gt;SetDifference -->
<g id="edge5" class="edge">
<title>SubsetAxiom&#45;&gt;SetDifference</title>
<path fill="none" stroke="black" d="M246.36,-215.7C247.57,-207.98 249.03,-198.71 250.38,-190.11"/>
<polygon fill="black" stroke="black" points="253.86,-190.53 251.96,-180.1 246.95,-189.44 253.86,-190.53"/>
</g>
<!-- AxiomOfPairing -->
<g id="node10" class="node">
<title>AxiomOfPairing</title>
<ellipse fill="none" stroke="black" cx="866.64" cy="-162" rx="94.78" ry="18"/>
<text text-anchor="middle" x="866.64" y="-158.3" font-family="Times New Roman,serif" font-size="14.00">Axiom of Pairing {a,b}</text>
</g>
<!-- SubsetAxiom&#45;&gt;AxiomOfPairing -->
<g id="edge6" class="edge">
<title>SubsetAxiom&#45;&gt;AxiomOfPairing</title>
<path fill="none" stroke="black" d="M312.65,-221.12C324.31,-219.29 336.31,-217.5 347.64,-216 495.14,-196.43 667.06,-180.15 771.32,-171"/>
<polygon fill="black" stroke="black" points="771.85,-174.47 781.5,-170.11 771.24,-167.49 771.85,-174.47"/>
</g>
<!-- PeanoAxioms -->
<g id="node23" class="node">
<title>PeanoAxioms</title>
<ellipse fill="none" stroke="black" cx="652.64" cy="-18" rx="83.69" ry="18"/>
<text text-anchor="middle" x="652.64" y="-14.3" font-family="Times New Roman,serif" font-size="14.00">Peano axioms for ℕ</text>
</g>
<!-- AxiomOfEmptySet&#45;&gt;PeanoAxioms -->
<g id="edge19" class="edge">
<title>AxiomOfEmptySet&#45;&gt;PeanoAxioms</title>
<path fill="none" stroke="black" d="M476.03,-215.85C509.96,-178.03 591.29,-87.38 630.62,-43.55"/>
<polygon fill="black" stroke="black" points="633.38,-45.72 637.45,-35.94 628.17,-41.04 633.38,-45.72"/>
</g>
<!-- Singleton -->
<g id="node12" class="node">
<title>Singleton</title>
<ellipse fill="none" stroke="black" cx="866.64" cy="-90" rx="59.59" ry="18"/>
<text text-anchor="middle" x="866.64" y="-86.3" font-family="Times New Roman,serif" font-size="14.00">Singleton {a}</text>
</g>
<!-- AxiomOfPairing&#45;&gt;Singleton -->
<g id="edge8" class="edge">
<title>AxiomOfPairing&#45;&gt;Singleton</title>
<path fill="none" stroke="black" d="M866.64,-143.7C866.64,-135.98 866.64,-126.71 866.64,-118.11"/>
<polygon fill="black" stroke="black" points="870.14,-118.1 866.64,-108.1 863.14,-118.1 870.14,-118.1"/>
</g>
<!-- OrderedPair -->
<g id="node13" class="node">
<title>OrderedPair</title>
<ellipse fill="none" stroke="black" cx="1604.64" cy="-450" rx="77.19" ry="18"/>
<text text-anchor="middle" x="1604.64" y="-446.3" font-family="Times New Roman,serif" font-size="14.00">Ordered Pair (x,y)</text>
</g>
<!-- AxiomOfPairing&#45;&gt;OrderedPair -->
<g id="edge9" class="edge">
<title>AxiomOfPairing&#45;&gt;OrderedPair</title>
<path fill="none" stroke="black" d="M934.81,-174.53C948,-176.54 961.73,-178.47 974.64,-180 1024.12,-185.88 1384.38,-182.93 1421.64,-216 1485.4,-272.58 1402.5,-340.74 1459.64,-404 1476.41,-422.57 1500.68,-433.55 1524.58,-440.02"/>
<polygon fill="black" stroke="black" points="1523.88,-443.45 1534.42,-442.45 1525.55,-436.66 1523.88,-443.45"/>
</g>
<!-- AxiomOfPairingWeak&#45;&gt;AxiomOfPairing -->
<g id="edge7" class="edge">
<title>AxiomOfPairingWeak&#45;&gt;AxiomOfPairing</title>
<path fill="none" stroke="black" d="M866.64,-215.7C866.64,-207.98 866.64,-198.71 866.64,-190.11"/>
<polygon fill="black" stroke="black" points="870.14,-190.1 866.64,-180.1 863.14,-190.1 870.14,-190.1"/>
</g>
<!-- OrderedPairKuratowski -->
<g id="node14" class="node">
<title>OrderedPairKuratowski</title>
<ellipse fill="none" stroke="black" cx="1604.64" cy="-378" rx="135.68" ry="18"/>
<text text-anchor="middle" x="1604.64" y="-374.3" font-family="Times New Roman,serif" font-size="14.00">Ordered Pair (x,y) := {{a}, {a,b}}</text>
</g>
<!-- OrderedPair&#45;&gt;OrderedPairKuratowski -->
<g id="edge10" class="edge">
<title>OrderedPair&#45;&gt;OrderedPairKuratowski</title>
<path fill="none" stroke="black" d="M1604.64,-431.7C1604.64,-423.98 1604.64,-414.71 1604.64,-406.11"/>
<polygon fill="black" stroke="black" points="1608.14,-406.1 1604.64,-396.1 1601.14,-406.1 1608.14,-406.1"/>
</g>
<!-- OrderedPairTarksiGrothendieck -->
<g id="node15" class="node">
<title>OrderedPairTarksiGrothendieck</title>
<ellipse fill="none" stroke="black" cx="1885.64" cy="-378" rx="126.98" ry="18"/>
<text text-anchor="middle" x="1885.64" y="-374.3" font-family="Times New Roman,serif" font-size="14.00">Ordered Pair (x,y) := {a, {a,b}}</text>
</g>
<!-- OrderedPair&#45;&gt;OrderedPairTarksiGrothendieck -->
<g id="edge11" class="edge">
<title>OrderedPair&#45;&gt;OrderedPairTarksiGrothendieck</title>
<path fill="none" stroke="black" d="M1655.53,-436.32C1700.46,-425.13 1766.36,-408.71 1816.14,-396.31"/>
<polygon fill="black" stroke="black" points="1817.01,-399.7 1825.87,-393.89 1815.32,-392.91 1817.01,-399.7"/>
</g>
<!-- OrderedPairCoordinatewiseEqualityKuratowski -->
<g id="node17" class="node">
<title>OrderedPairCoordinatewiseEqualityKuratowski</title>
<ellipse fill="none" stroke="black" cx="1605.64" cy="-306" rx="137.28" ry="18"/>
<text text-anchor="middle" x="1605.64" y="-302.3" font-family="Times New Roman,serif" font-size="14.00">(a,b)=(x,y) works for {{a}, {a,b}}</text>
</g>
<!-- OrderedPairKuratowski&#45;&gt;OrderedPairCoordinatewiseEqualityKuratowski -->
<g id="edge14" class="edge">
<title>OrderedPairKuratowski&#45;&gt;OrderedPairCoordinatewiseEqualityKuratowski</title>
<path fill="none" stroke="black" d="M1604.89,-359.7C1605,-351.98 1605.13,-342.71 1605.26,-334.11"/>
<polygon fill="black" stroke="black" points="1608.76,-334.15 1605.4,-324.1 1601.76,-334.05 1608.76,-334.15"/>
</g>
<!-- OrderedPairCoordinatewiseEquality -->
<g id="node16" class="node">
<title>OrderedPairCoordinatewiseEquality</title>
<ellipse fill="none" stroke="black" cx="1605.64" cy="-234" rx="93.68" ry="18"/>
<text text-anchor="middle" x="1605.64" y="-230.3" font-family="Times New Roman,serif" font-size="14.00">(a,b)=(x,y) iff a=x,b=y</text>
</g>
<!-- CartesianProduct -->
<g id="node20" class="node">
<title>CartesianProduct</title>
<ellipse fill="none" stroke="black" cx="1504.64" cy="-162" rx="76.09" ry="18"/>
<text text-anchor="middle" x="1504.64" y="-158.3" font-family="Times New Roman,serif" font-size="14.00">Cartesian Product</text>
</g>
<!-- OrderedPairCoordinatewiseEquality&#45;&gt;CartesianProduct -->
<g id="edge15" class="edge">
<title>OrderedPairCoordinatewiseEquality&#45;&gt;CartesianProduct</title>
<path fill="none" stroke="black" d="M1581.71,-216.41C1568.15,-207.02 1551.02,-195.15 1536.36,-184.98"/>
<polygon fill="black" stroke="black" points="1538.27,-182.05 1528.06,-179.23 1534.28,-187.8 1538.27,-182.05"/>
</g>
<!-- OrderedPairCoordinatewiseEqualityKuratowski&#45;&gt;OrderedPairCoordinatewiseEquality -->
<g id="edge12" class="edge">
<title>OrderedPairCoordinatewiseEqualityKuratowski&#45;&gt;OrderedPairCoordinatewiseEquality</title>
<path fill="none" stroke="black" d="M1605.64,-287.7C1605.64,-279.98 1605.64,-270.71 1605.64,-262.11"/>
<polygon fill="black" stroke="black" points="1609.14,-262.1 1605.64,-252.1 1602.14,-262.1 1609.14,-262.1"/>
</g>
<!-- OrderedPairCoordinatewiseEqualityTarksiGrothendieck -->
<g id="node18" class="node">
<title>OrderedPairCoordinatewiseEqualityTarksiGrothendieck</title>
<ellipse fill="none" stroke="black" cx="1888.64" cy="-306" rx="128.08" ry="18"/>
<text text-anchor="middle" x="1888.64" y="-302.3" font-family="Times New Roman,serif" font-size="14.00">(a,b)=(x,y) works for {a, {a,b}}</text>
</g>
<!-- OrderedPairCoordinatewiseEqualityTarksiGrothendieck&#45;&gt;OrderedPairCoordinatewiseEquality -->
<g id="edge13" class="edge">
<title>OrderedPairCoordinatewiseEqualityTarksiGrothendieck&#45;&gt;OrderedPairCoordinatewiseEquality</title>
<path fill="none" stroke="black" d="M1828.28,-290.07C1781.9,-278.6 1717.97,-262.78 1670.51,-251.04"/>
<polygon fill="black" stroke="black" points="1671.19,-247.61 1660.64,-248.6 1669.51,-254.4 1671.19,-247.61"/>
</g>
<!-- AxiomOfAbsoluteUnion&#45;&gt;CartesianProduct -->
<g id="edge16" class="edge">
<title>AxiomOfAbsoluteUnion&#45;&gt;CartesianProduct</title>
<path fill="none" stroke="black" d="M1188.58,-221.11C1251.67,-210.88 1344.22,-195.39 1424.64,-180 1429.74,-179.02 1435.02,-177.98 1440.31,-176.91"/>
<polygon fill="black" stroke="black" points="1441.39,-180.26 1450.48,-174.82 1439.98,-173.4 1441.39,-180.26"/>
</g>
<!-- AxiomOfReplacement -->
<g id="node25" class="node">
<title>AxiomOfReplacement</title>
<ellipse fill="none" stroke="black" cx="1113.64" cy="-162" rx="129.98" ry="18"/>
<text text-anchor="middle" x="1113.64" y="-158.3" font-family="Times New Roman,serif" font-size="14.00">Axiom (schema) of Replacement</text>
</g>
<!-- AxiomOfAbsoluteUnion&#45;&gt;AxiomOfReplacement -->
<g id="edge32" class="edge">
<title>AxiomOfAbsoluteUnion&#45;&gt;AxiomOfReplacement</title>
<path fill="none" stroke="black" d="M1113.64,-215.7C1113.64,-207.98 1113.64,-198.71 1113.64,-190.11"/>
<polygon fill="black" stroke="black" points="1117.14,-190.1 1113.64,-180.1 1110.14,-190.1 1117.14,-190.1"/>
</g>
<!-- FunctionsAndRelations -->
<g id="node22" class="node">
<title>FunctionsAndRelations</title>
<ellipse fill="none" stroke="black" cx="1113.64" cy="-90" rx="94.78" ry="18"/>
<text text-anchor="middle" x="1113.64" y="-86.3" font-family="Times New Roman,serif" font-size="14.00">Functions and relations</text>
</g>
<!-- CartesianProduct&#45;&gt;FunctionsAndRelations -->
<g id="edge18" class="edge">
<title>CartesianProduct&#45;&gt;FunctionsAndRelations</title>
<path fill="none" stroke="black" d="M1463.46,-146.76C1451.09,-142.85 1437.41,-138.9 1424.64,-136 1351.82,-119.46 1267.96,-107.75 1205.69,-100.42"/>
<polygon fill="black" stroke="black" points="1205.83,-96.91 1195.49,-99.24 1205.02,-103.87 1205.83,-96.91"/>
</g>
<!-- AxiomOfPowerSet&#45;&gt;CartesianProduct -->
<g id="edge17" class="edge">
<title>AxiomOfPowerSet&#45;&gt;CartesianProduct</title>
<path fill="none" stroke="black" d="M1364.48,-217.81C1391.83,-207.12 1428.58,-192.75 1457.59,-181.4"/>
<polygon fill="black" stroke="black" points="1459.07,-184.58 1467.11,-177.68 1456.52,-178.06 1459.07,-184.58"/>
</g>
<!-- FunctionsAndRelations&#45;&gt;PeanoAxioms -->
<g id="edge20" class="edge">
<title>FunctionsAndRelations&#45;&gt;PeanoAxioms</title>
<path fill="none" stroke="black" d="M1042.12,-78.14C957.22,-65.25 816.21,-43.84 729.17,-30.62"/>
<polygon fill="black" stroke="black" points="729.51,-27.13 719.09,-29.09 728.46,-34.05 729.51,-27.13"/>
</g>
<!-- FunctionsAndRelations&#45;&gt;AxiomOfReplacement -->
<g id="edge33" class="edge">
<title>FunctionsAndRelations&#45;&gt;AxiomOfReplacement</title>
<path fill="none" stroke="black" d="M1113.64,-108.1C1113.64,-115.79 1113.64,-125.05 1113.64,-133.67"/>
<polygon fill="black" stroke="black" points="1110.14,-133.7 1113.64,-143.7 1117.14,-133.7 1110.14,-133.7"/>
</g>
<!-- AxiomOfInfinity -->
<g id="node24" class="node">
<title>AxiomOfInfinity</title>
<ellipse fill="none" stroke="black" cx="652.64" cy="-234" rx="73.39" ry="18"/>
<text text-anchor="middle" x="652.64" y="-230.3" font-family="Times New Roman,serif" font-size="14.00">Axiom of Infinity</text>
</g>
<!-- PeanoAxioms&#45;&gt;AxiomOfInfinity -->
<g id="edge21" class="edge">
<title>PeanoAxioms&#45;&gt;AxiomOfInfinity</title>
<path fill="none" stroke="black" d="M652.64,-36.23C652.64,-73.32 652.64,-160.98 652.64,-205.71"/>
<polygon fill="black" stroke="black" points="649.14,-205.85 652.64,-215.85 656.14,-205.85 649.14,-205.85"/>
</g>
</g>
</svg>
