<?xml version="1.0" encoding="UTF-8" standalone="no"?>
<!DOCTYPE svg PUBLIC "-//W3C//DTD SVG 1.1//EN"
 "http://www.w3.org/Graphics/SVG/1.1/DTD/svg11.dtd">
<!-- Generated by graphviz version 2.49.3 (20211023.0002)
 -->
<!-- Pages: 1 -->
<svg width="1824pt" height="476pt"
 viewBox="0.00 0.00 1823.78 476.00" xmlns="http://www.w3.org/2000/svg" xmlns:xlink="http://www.w3.org/1999/xlink">
<g id="graph0" class="graph" transform="scale(1 1) rotate(0) translate(4 472)">
<polygon fill="white" stroke="transparent" points="-4,4 -4,-472 1819.78,-472 1819.78,4 -4,4"/>
<g id="clust1" class="cluster">
<title>clusterUnrestrictedComprehension</title>
<polygon fill="none" stroke="black" points="995.04,-280 995.04,-404 1315.04,-404 1315.04,-280 995.04,-280"/>
</g>
<g id="clust11" class="cluster">
<title>clusterSetSpawn</title>
<polygon fill="none" stroke="black" points="232.04,-136 232.04,-260 1300.04,-260 1300.04,-136 232.04,-136"/>
</g>
<!-- UnrestrictedComprehension -->
<g id="node1" class="node">
<title>UnrestrictedComprehension</title>
<ellipse fill="black" stroke="black" cx="1155.04" cy="-378" rx="152.17" ry="18"/>
<text text-anchor="middle" x="1155.04" y="-374.3" font-family="Times New Roman,serif" font-size="14.00" fill="white">Axiom of Unrestricted Comprehension</text>
</g>
<!-- RussellsParadox -->
<g id="node2" class="node">
<title>RussellsParadox</title>
<ellipse fill="none" stroke="black" cx="1232.04" cy="-306" rx="75.29" ry="18"/>
<text text-anchor="middle" x="1232.04" y="-302.3" font-family="Times New Roman,serif" font-size="14.00">Russell&#39;s paradox</text>
</g>
<!-- UnrestrictedComprehension&#45;&gt;RussellsParadox -->
<g id="edge1" class="edge">
<title>UnrestrictedComprehension&#45;&gt;RussellsParadox</title>
<path fill="none" stroke="black" d="M1173.68,-360.05C1183.49,-351.13 1195.68,-340.06 1206.37,-330.34"/>
<polygon fill="black" stroke="black" points="1208.79,-332.86 1213.84,-323.55 1204.08,-327.68 1208.79,-332.86"/>
</g>
<!-- ClassExistence -->
<g id="node3" class="node">
<title>ClassExistence</title>
<ellipse fill="none" stroke="black" cx="1071.04" cy="-306" rx="67.69" ry="18"/>
<text text-anchor="middle" x="1071.04" y="-302.3" font-family="Times New Roman,serif" font-size="14.00">Class Existence</text>
</g>
<!-- UnrestrictedComprehension&#45;&gt;ClassExistence -->
<g id="edge2" class="edge">
<title>UnrestrictedComprehension&#45;&gt;ClassExistence</title>
<path fill="none" stroke="black" d="M1134.7,-360.05C1123.82,-350.98 1110.25,-339.68 1098.45,-329.84"/>
<polygon fill="black" stroke="black" points="1100.53,-327.02 1090.61,-323.31 1096.05,-332.4 1100.53,-327.02"/>
</g>
<!-- SubsetAxiom -->
<g id="node6" class="node">
<title>SubsetAxiom</title>
<ellipse fill="none" stroke="black" cx="1408.04" cy="-234" rx="98.28" ry="18"/>
<text text-anchor="middle" x="1408.04" y="-230.3" font-family="Times New Roman,serif" font-size="14.00">Subset Axiom (schema)</text>
</g>
<!-- ClassExistence&#45;&gt;SubsetAxiom -->
<g id="edge27" class="edge">
<title>ClassExistence&#45;&gt;SubsetAxiom</title>
<path fill="none" stroke="black" d="M1109.03,-291.11C1121.34,-287.03 1135.15,-282.89 1148.04,-280 1216.24,-264.7 1235.29,-272.63 1304.04,-260 1317.14,-257.59 1331.06,-254.57 1344.32,-251.47"/>
<polygon fill="black" stroke="black" points="1345.38,-254.82 1354.3,-249.09 1343.76,-248.01 1345.38,-254.82"/>
</g>
<!-- AxiomOfEmptySet -->
<g id="node7" class="node">
<title>AxiomOfEmptySet</title>
<ellipse fill="none" stroke="black" cx="929.04" cy="-234" rx="100.98" ry="18"/>
<text text-anchor="middle" x="929.04" y="-230.3" font-family="Times New Roman,serif" font-size="14.00">Axiom Of Empty Set ∅</text>
</g>
<!-- ClassExistence&#45;&gt;AxiomOfEmptySet -->
<g id="edge28" class="edge">
<title>ClassExistence&#45;&gt;AxiomOfEmptySet</title>
<path fill="none" stroke="black" d="M1040.23,-289.81C1019.96,-279.82 993.17,-266.61 970.97,-255.67"/>
<polygon fill="black" stroke="black" points="972.28,-252.42 961.77,-251.13 969.19,-258.69 972.28,-252.42"/>
</g>
<!-- AxiomOfPairingWeak -->
<g id="node11" class="node">
<title>AxiomOfPairingWeak</title>
<ellipse fill="none" stroke="black" cx="1170.04" cy="-234" rx="122.38" ry="18"/>
<text text-anchor="middle" x="1170.04" y="-230.3" font-family="Times New Roman,serif" font-size="14.00">(weak) Axiom of Pairing {a,b}</text>
</g>
<!-- ClassExistence&#45;&gt;AxiomOfPairingWeak -->
<g id="edge29" class="edge">
<title>ClassExistence&#45;&gt;AxiomOfPairingWeak</title>
<path fill="none" stroke="black" d="M1094,-288.76C1106.96,-279.6 1123.37,-268 1137.62,-257.92"/>
<polygon fill="black" stroke="black" points="1140.02,-260.51 1146.17,-251.88 1135.98,-254.79 1140.02,-260.51"/>
</g>
<!-- AxiomOfAbsoluteUnion -->
<g id="node19" class="node">
<title>AxiomOfAbsoluteUnion</title>
<ellipse fill="none" stroke="black" cx="539.04" cy="-234" rx="106.68" ry="18"/>
<text text-anchor="middle" x="539.04" y="-230.3" font-family="Times New Roman,serif" font-size="14.00">Axiom of (absolute) union</text>
</g>
<!-- ClassExistence&#45;&gt;AxiomOfAbsoluteUnion -->
<g id="edge30" class="edge">
<title>ClassExistence&#45;&gt;AxiomOfAbsoluteUnion</title>
<path fill="none" stroke="black" d="M1033.94,-290.84C1021.44,-286.64 1007.3,-282.5 994.04,-280 845.73,-252.02 804.58,-280.4 655.04,-260 639.3,-257.85 622.52,-254.73 606.75,-251.42"/>
<polygon fill="black" stroke="black" points="607.07,-247.9 596.55,-249.22 605.59,-254.75 607.07,-247.9"/>
</g>
<!-- AxiomOfPowerSet -->
<g id="node21" class="node">
<title>AxiomOfPowerSet</title>
<ellipse fill="none" stroke="black" cx="327.04" cy="-234" rx="87.18" ry="18"/>
<text text-anchor="middle" x="327.04" y="-230.3" font-family="Times New Roman,serif" font-size="14.00">Axiom Of Power Set</text>
</g>
<!-- ClassExistence&#45;&gt;AxiomOfPowerSet -->
<g id="edge31" class="edge">
<title>ClassExistence&#45;&gt;AxiomOfPowerSet</title>
<path fill="none" stroke="black" d="M1034.36,-290.79C1021.77,-286.53 1007.47,-282.37 994.04,-280 743.96,-235.92 674.31,-296.66 423.04,-260 410,-258.1 396.18,-255.1 383.22,-251.83"/>
<polygon fill="black" stroke="black" points="384.05,-248.43 373.49,-249.29 382.28,-255.21 384.05,-248.43"/>
</g>
<!-- ZF -->
<g id="node4" class="node">
<title>ZF</title>
<ellipse fill="none" stroke="black" cx="915.04" cy="-306" rx="70.39" ry="18"/>
<text text-anchor="middle" x="915.04" y="-302.3" font-family="Times New Roman,serif" font-size="14.00">Zermelo&#45;Frankel</text>
</g>
<!-- ZF&#45;&gt;SubsetAxiom -->
<g id="edge22" class="edge">
<title>ZF&#45;&gt;SubsetAxiom</title>
<path fill="none" stroke="black" d="M952.42,-290.61C964.57,-286.5 978.22,-282.48 991.04,-280 1127.9,-253.56 1166.21,-280.81 1304.04,-260 1317.85,-257.91 1332.53,-254.89 1346.37,-251.67"/>
<polygon fill="black" stroke="black" points="1347.37,-255.03 1356.28,-249.3 1345.74,-248.22 1347.37,-255.03"/>
</g>
<!-- ZF&#45;&gt;AxiomOfEmptySet -->
<g id="edge23" class="edge">
<title>ZF&#45;&gt;AxiomOfEmptySet</title>
<path fill="none" stroke="black" d="M918.5,-287.7C920.04,-279.98 921.9,-270.71 923.62,-262.11"/>
<polygon fill="black" stroke="black" points="927.09,-262.6 925.62,-252.1 920.22,-261.22 927.09,-262.6"/>
</g>
<!-- ZF&#45;&gt;AxiomOfPairingWeak -->
<g id="edge24" class="edge">
<title>ZF&#45;&gt;AxiomOfPairingWeak</title>
<path fill="none" stroke="black" d="M955.5,-291.1C966.94,-287.33 979.43,-283.36 991.04,-280 1025.9,-269.9 1064.96,-259.92 1097.68,-251.94"/>
<polygon fill="black" stroke="black" points="1098.72,-255.29 1107.61,-249.53 1097.07,-248.49 1098.72,-255.29"/>
</g>
<!-- ZF&#45;&gt;AxiomOfAbsoluteUnion -->
<g id="edge25" class="edge">
<title>ZF&#45;&gt;AxiomOfAbsoluteUnion</title>
<path fill="none" stroke="black" d="M857.34,-295.71C804.57,-287.05 724.4,-273.47 655.04,-260 640.66,-257.21 625.32,-254.04 610.67,-250.92"/>
<polygon fill="black" stroke="black" points="611.16,-247.44 600.65,-248.77 609.69,-254.29 611.16,-247.44"/>
</g>
<!-- ZF&#45;&gt;AxiomOfPowerSet -->
<g id="edge26" class="edge">
<title>ZF&#45;&gt;AxiomOfPowerSet</title>
<path fill="none" stroke="black" d="M849.17,-299.58C724.76,-289.25 463.96,-267.15 423.04,-260 410.59,-257.82 397.39,-254.84 384.89,-251.69"/>
<polygon fill="black" stroke="black" points="385.6,-248.26 375.05,-249.15 383.85,-255.04 385.6,-248.26"/>
</g>
<!-- NBG -->
<g id="node5" class="node">
<title>NBG</title>
<ellipse fill="none" stroke="black" cx="865.04" cy="-378" rx="120.48" ry="18"/>
<text text-anchor="middle" x="865.04" y="-374.3" font-family="Times New Roman,serif" font-size="14.00">Von Neumann&#45;Bernays&#45;Gödel</text>
</g>
<!-- NBG&#45;&gt;ClassExistence -->
<g id="edge3" class="edge">
<title>NBG&#45;&gt;ClassExistence</title>
<path fill="none" stroke="black" d="M911.27,-361.29C943.98,-350.17 987.81,-335.28 1021.28,-323.91"/>
<polygon fill="black" stroke="black" points="1022.53,-327.18 1030.87,-320.65 1020.28,-320.55 1022.53,-327.18"/>
</g>
<!-- Intersection -->
<g id="node8" class="node">
<title>Intersection</title>
<ellipse fill="none" stroke="black" cx="1398.04" cy="-162" rx="78.79" ry="18"/>
<text text-anchor="middle" x="1398.04" y="-158.3" font-family="Times New Roman,serif" font-size="14.00">Intersection A ∩ B</text>
</g>
<!-- SubsetAxiom&#45;&gt;Intersection -->
<g id="edge4" class="edge">
<title>SubsetAxiom&#45;&gt;Intersection</title>
<path fill="none" stroke="black" d="M1405.57,-215.7C1404.46,-207.98 1403.14,-198.71 1401.91,-190.11"/>
<polygon fill="black" stroke="black" points="1405.36,-189.51 1400.48,-180.1 1398.43,-190.5 1405.36,-189.51"/>
</g>
<!-- SetDifference -->
<g id="node9" class="node">
<title>SetDifference</title>
<ellipse fill="none" stroke="black" cx="1574.04" cy="-162" rx="79.09" ry="18"/>
<text text-anchor="middle" x="1574.04" y="-158.3" font-family="Times New Roman,serif" font-size="14.00">Set Difference A\B</text>
</g>
<!-- SubsetAxiom&#45;&gt;SetDifference -->
<g id="edge5" class="edge">
<title>SubsetAxiom&#45;&gt;SetDifference</title>
<path fill="none" stroke="black" d="M1445.29,-217.29C1469.98,-206.88 1502.52,-193.16 1528.71,-182.11"/>
<polygon fill="black" stroke="black" points="1530.2,-185.29 1538.05,-178.18 1527.48,-178.84 1530.2,-185.29"/>
</g>
<!-- AxiomOfPairing -->
<g id="node10" class="node">
<title>AxiomOfPairing</title>
<ellipse fill="none" stroke="black" cx="1197.04" cy="-162" rx="94.78" ry="18"/>
<text text-anchor="middle" x="1197.04" y="-158.3" font-family="Times New Roman,serif" font-size="14.00">Axiom of Pairing {a,b}</text>
</g>
<!-- SubsetAxiom&#45;&gt;AxiomOfPairing -->
<g id="edge6" class="edge">
<title>SubsetAxiom&#45;&gt;AxiomOfPairing</title>
<path fill="none" stroke="black" d="M1362.77,-217.98C1330.26,-207.2 1286.27,-192.6 1251.78,-181.16"/>
<polygon fill="black" stroke="black" points="1252.46,-177.7 1241.87,-177.87 1250.26,-184.34 1252.46,-177.7"/>
</g>
<!-- PeanoAxioms -->
<g id="node23" class="node">
<title>PeanoAxioms</title>
<ellipse fill="none" stroke="black" cx="737.04" cy="-18" rx="83.69" ry="18"/>
<text text-anchor="middle" x="737.04" y="-14.3" font-family="Times New Roman,serif" font-size="14.00">Peano axioms for ℕ</text>
</g>
<!-- AxiomOfEmptySet&#45;&gt;PeanoAxioms -->
<g id="edge19" class="edge">
<title>AxiomOfEmptySet&#45;&gt;PeanoAxioms</title>
<path fill="none" stroke="black" d="M913.65,-215.85C879.72,-178.03 798.39,-87.38 759.07,-43.55"/>
<polygon fill="black" stroke="black" points="761.52,-41.04 752.23,-35.94 756.31,-45.72 761.52,-41.04"/>
</g>
<!-- Singleton -->
<g id="node12" class="node">
<title>Singleton</title>
<ellipse fill="none" stroke="black" cx="1197.04" cy="-90" rx="59.59" ry="18"/>
<text text-anchor="middle" x="1197.04" y="-86.3" font-family="Times New Roman,serif" font-size="14.00">Singleton {a}</text>
</g>
<!-- AxiomOfPairing&#45;&gt;Singleton -->
<g id="edge8" class="edge">
<title>AxiomOfPairing&#45;&gt;Singleton</title>
<path fill="none" stroke="black" d="M1197.04,-143.7C1197.04,-135.98 1197.04,-126.71 1197.04,-118.11"/>
<polygon fill="black" stroke="black" points="1200.54,-118.1 1197.04,-108.1 1193.54,-118.1 1200.54,-118.1"/>
</g>
<!-- OrderedPair -->
<g id="node13" class="node">
<title>OrderedPair</title>
<ellipse fill="none" stroke="black" cx="1534.04" cy="-450" rx="77.19" ry="18"/>
<text text-anchor="middle" x="1534.04" y="-446.3" font-family="Times New Roman,serif" font-size="14.00">Ordered Pair (x,y)</text>
</g>
<!-- AxiomOfPairing&#45;&gt;OrderedPair -->
<g id="edge9" class="edge">
<title>AxiomOfPairing&#45;&gt;OrderedPair</title>
<path fill="none" stroke="black" d="M1268.79,-173.84C1361.28,-187.98 1510.86,-211.46 1515.04,-216 1567.27,-272.8 1552.4,-373.74 1541.29,-421.94"/>
<polygon fill="black" stroke="black" points="1537.82,-421.38 1538.86,-431.92 1544.62,-423.03 1537.82,-421.38"/>
</g>
<!-- AxiomOfPairingWeak&#45;&gt;AxiomOfPairing -->
<g id="edge7" class="edge">
<title>AxiomOfPairingWeak&#45;&gt;AxiomOfPairing</title>
<path fill="none" stroke="black" d="M1176.71,-215.7C1179.75,-207.81 1183.42,-198.3 1186.8,-189.55"/>
<polygon fill="black" stroke="black" points="1190.11,-190.69 1190.44,-180.1 1183.58,-188.17 1190.11,-190.69"/>
</g>
<!-- OrderedPairKuratowski -->
<g id="node14" class="node">
<title>OrderedPairKuratowski</title>
<ellipse fill="none" stroke="black" cx="546.04" cy="-378" rx="135.68" ry="18"/>
<text text-anchor="middle" x="546.04" y="-374.3" font-family="Times New Roman,serif" font-size="14.00">Ordered Pair (x,y) := {{a}, {a,b}}</text>
</g>
<!-- OrderedPair&#45;&gt;OrderedPairKuratowski -->
<g id="edge10" class="edge">
<title>OrderedPair&#45;&gt;OrderedPairKuratowski</title>
<path fill="none" stroke="black" d="M1457.98,-446.6C1315.9,-441.69 1000.6,-428.83 736.04,-404 705.83,-401.16 673.04,-397.18 643.33,-393.22"/>
<polygon fill="black" stroke="black" points="643.76,-389.74 633.38,-391.88 642.82,-396.68 643.76,-389.74"/>
</g>
<!-- OrderedPairTarksiGrothendieck -->
<g id="node15" class="node">
<title>OrderedPairTarksiGrothendieck</title>
<ellipse fill="none" stroke="black" cx="1689.04" cy="-378" rx="126.98" ry="18"/>
<text text-anchor="middle" x="1689.04" y="-374.3" font-family="Times New Roman,serif" font-size="14.00">Ordered Pair (x,y) := {a, {a,b}}</text>
</g>
<!-- OrderedPair&#45;&gt;OrderedPairTarksiGrothendieck -->
<g id="edge11" class="edge">
<title>OrderedPair&#45;&gt;OrderedPairTarksiGrothendieck</title>
<path fill="none" stroke="black" d="M1568.05,-433.64C1590.24,-423.62 1619.45,-410.43 1643.62,-399.51"/>
<polygon fill="black" stroke="black" points="1645.27,-402.61 1652.94,-395.3 1642.39,-396.23 1645.27,-402.61"/>
</g>
<!-- OrderedPairCoordinatewiseEqualityKuratowski -->
<g id="node17" class="node">
<title>OrderedPairCoordinatewiseEqualityKuratowski</title>
<ellipse fill="none" stroke="black" cx="456.04" cy="-306" rx="137.28" ry="18"/>
<text text-anchor="middle" x="456.04" y="-302.3" font-family="Times New Roman,serif" font-size="14.00">(a,b)=(x,y) works for {{a}, {a,b}}</text>
</g>
<!-- OrderedPairKuratowski&#45;&gt;OrderedPairCoordinatewiseEqualityKuratowski -->
<g id="edge14" class="edge">
<title>OrderedPairKuratowski&#45;&gt;OrderedPairCoordinatewiseEqualityKuratowski</title>
<path fill="none" stroke="black" d="M524.25,-360.05C512.64,-351.03 498.2,-339.79 485.59,-329.99"/>
<polygon fill="black" stroke="black" points="487.67,-327.17 477.62,-323.79 483.37,-332.69 487.67,-327.17"/>
</g>
<!-- OrderedPairCoordinatewiseEquality -->
<g id="node16" class="node">
<title>OrderedPairCoordinatewiseEquality</title>
<ellipse fill="none" stroke="black" cx="128.04" cy="-234" rx="93.68" ry="18"/>
<text text-anchor="middle" x="128.04" y="-230.3" font-family="Times New Roman,serif" font-size="14.00">(a,b)=(x,y) iff a=x,b=y</text>
</g>
<!-- CartesianProduct -->
<g id="node20" class="node">
<title>CartesianProduct</title>
<ellipse fill="none" stroke="black" cx="148.04" cy="-162" rx="76.09" ry="18"/>
<text text-anchor="middle" x="148.04" y="-158.3" font-family="Times New Roman,serif" font-size="14.00">Cartesian Product</text>
</g>
<!-- OrderedPairCoordinatewiseEquality&#45;&gt;CartesianProduct -->
<g id="edge15" class="edge">
<title>OrderedPairCoordinatewiseEquality&#45;&gt;CartesianProduct</title>
<path fill="none" stroke="black" d="M132.98,-215.7C135.21,-207.9 137.89,-198.51 140.37,-189.83"/>
<polygon fill="black" stroke="black" points="143.77,-190.68 143.15,-180.1 137.04,-188.76 143.77,-190.68"/>
</g>
<!-- OrderedPairCoordinatewiseEqualityKuratowski&#45;&gt;OrderedPairCoordinatewiseEquality -->
<g id="edge12" class="edge">
<title>OrderedPairCoordinatewiseEqualityKuratowski&#45;&gt;OrderedPairCoordinatewiseEquality</title>
<path fill="none" stroke="black" d="M380.1,-291C335.66,-282.56 278.54,-271.29 228.04,-260 216.17,-257.35 203.55,-254.34 191.42,-251.35"/>
<polygon fill="black" stroke="black" points="191.92,-247.87 181.38,-248.86 190.24,-254.67 191.92,-247.87"/>
</g>
<!-- OrderedPairCoordinatewiseEqualityTarksiGrothendieck -->
<g id="node18" class="node">
<title>OrderedPairCoordinatewiseEqualityTarksiGrothendieck</title>
<ellipse fill="none" stroke="black" cx="128.04" cy="-306" rx="128.08" ry="18"/>
<text text-anchor="middle" x="128.04" y="-302.3" font-family="Times New Roman,serif" font-size="14.00">(a,b)=(x,y) works for {a, {a,b}}</text>
</g>
<!-- OrderedPairCoordinatewiseEqualityTarksiGrothendieck&#45;&gt;OrderedPairCoordinatewiseEquality -->
<g id="edge13" class="edge">
<title>OrderedPairCoordinatewiseEqualityTarksiGrothendieck&#45;&gt;OrderedPairCoordinatewiseEquality</title>
<path fill="none" stroke="black" d="M128.04,-287.7C128.04,-279.98 128.04,-270.71 128.04,-262.11"/>
<polygon fill="black" stroke="black" points="131.54,-262.1 128.04,-252.1 124.54,-262.1 131.54,-262.1"/>
</g>
<!-- AxiomOfAbsoluteUnion&#45;&gt;CartesianProduct -->
<g id="edge16" class="edge">
<title>AxiomOfAbsoluteUnion&#45;&gt;CartesianProduct</title>
<path fill="none" stroke="black" d="M464.11,-221.11C401.02,-210.88 308.46,-195.39 228.04,-180 222.94,-179.02 217.67,-177.98 212.37,-176.91"/>
<polygon fill="black" stroke="black" points="212.7,-173.4 202.2,-174.82 211.29,-180.26 212.7,-173.4"/>
</g>
<!-- FunctionsAndRelations -->
<g id="node22" class="node">
<title>FunctionsAndRelations</title>
<ellipse fill="none" stroke="black" cx="381.04" cy="-90" rx="94.78" ry="18"/>
<text text-anchor="middle" x="381.04" y="-86.3" font-family="Times New Roman,serif" font-size="14.00">Functions and relations</text>
</g>
<!-- CartesianProduct&#45;&gt;FunctionsAndRelations -->
<g id="edge18" class="edge">
<title>CartesianProduct&#45;&gt;FunctionsAndRelations</title>
<path fill="none" stroke="black" d="M191.59,-147.24C203.41,-143.55 216.2,-139.59 228.04,-136 258.85,-126.66 293.24,-116.51 321.6,-108.23"/>
<polygon fill="black" stroke="black" points="322.74,-111.54 331.36,-105.38 320.78,-104.82 322.74,-111.54"/>
</g>
<!-- AxiomOfPowerSet&#45;&gt;CartesianProduct -->
<g id="edge17" class="edge">
<title>AxiomOfPowerSet&#45;&gt;CartesianProduct</title>
<path fill="none" stroke="black" d="M288.2,-217.81C260.85,-207.12 224.1,-192.75 195.09,-181.4"/>
<polygon fill="black" stroke="black" points="196.16,-178.06 185.58,-177.68 193.62,-184.58 196.16,-178.06"/>
</g>
<!-- FunctionsAndRelations&#45;&gt;PeanoAxioms -->
<g id="edge20" class="edge">
<title>FunctionsAndRelations&#45;&gt;PeanoAxioms</title>
<path fill="none" stroke="black" d="M444.27,-76.57C506.86,-64.26 602.45,-45.46 667.23,-32.73"/>
<polygon fill="black" stroke="black" points="668.22,-36.1 677.35,-30.74 666.87,-29.23 668.22,-36.1"/>
</g>
<!-- AxiomOfInfinity -->
<g id="node24" class="node">
<title>AxiomOfInfinity</title>
<ellipse fill="none" stroke="black" cx="737.04" cy="-234" rx="73.39" ry="18"/>
<text text-anchor="middle" x="737.04" y="-230.3" font-family="Times New Roman,serif" font-size="14.00">Axiom of Infinity</text>
</g>
<!-- PeanoAxioms&#45;&gt;AxiomOfInfinity -->
<g id="edge21" class="edge">
<title>PeanoAxioms&#45;&gt;AxiomOfInfinity</title>
<path fill="none" stroke="black" d="M737.04,-36.23C737.04,-73.32 737.04,-160.98 737.04,-205.71"/>
<polygon fill="black" stroke="black" points="733.54,-205.85 737.04,-215.85 740.54,-205.85 733.54,-205.85"/>
</g>
</g>
</svg>
